<mxfile host="Electron" modified="2023-12-04T05:58:05.720Z" agent="Mozilla/5.0 (Windows NT 10.0; Win64; x64) AppleWebKit/537.36 (KHTML, like Gecko) draw.io/22.1.2 Chrome/114.0.5735.289 Electron/25.9.4 Safari/537.36" etag="STipzVwG8Bbda_CQJNpm" version="22.1.2" type="device" pages="2">
  <diagram name="Страница — 1" id="Wx4H0ALLH-YiIY6WqwrS">
    <mxGraphModel dx="1037" dy="703" grid="1" gridSize="10" guides="1" tooltips="1" connect="1" arrows="1" fold="1" page="1" pageScale="1" pageWidth="827" pageHeight="1169" math="0" shadow="0">
      <root>
        <mxCell id="0" />
        <mxCell id="1" parent="0" />
        <mxCell id="GELHFC_nUUnwsAZdzvut-1" value="Управление сервисом покупки и чтения книг" style="rounded=0;whiteSpace=wrap;html=1;" parent="1" vertex="1">
          <mxGeometry x="240" y="295" width="120" height="60" as="geometry" />
        </mxCell>
        <mxCell id="GELHFC_nUUnwsAZdzvut-3" value="" style="endArrow=classic;html=1;rounded=0;entryX=0.25;entryY=0;entryDx=0;entryDy=0;" parent="1" edge="1">
          <mxGeometry width="50" height="50" relative="1" as="geometry">
            <mxPoint x="280" y="235" as="sourcePoint" />
            <mxPoint x="280" y="295" as="targetPoint" />
          </mxGeometry>
        </mxCell>
        <mxCell id="GELHFC_nUUnwsAZdzvut-6" value="" style="endArrow=classic;html=1;rounded=0;entryX=0;entryY=0.25;entryDx=0;entryDy=0;" parent="1" target="GELHFC_nUUnwsAZdzvut-1" edge="1">
          <mxGeometry width="50" height="50" relative="1" as="geometry">
            <mxPoint x="120" y="310" as="sourcePoint" />
            <mxPoint x="270" y="305" as="targetPoint" />
          </mxGeometry>
        </mxCell>
        <mxCell id="GELHFC_nUUnwsAZdzvut-10" value="Запросы пользователя" style="text;strokeColor=none;align=center;fillColor=none;html=1;verticalAlign=middle;whiteSpace=wrap;rounded=0;" parent="1" vertex="1">
          <mxGeometry x="150" y="275" width="60" height="30" as="geometry" />
        </mxCell>
        <mxCell id="GELHFC_nUUnwsAZdzvut-11" value="" style="endArrow=classic;html=1;rounded=0;entryX=0.005;entryY=0.652;entryDx=0;entryDy=0;entryPerimeter=0;" parent="1" target="GELHFC_nUUnwsAZdzvut-1" edge="1">
          <mxGeometry width="50" height="50" relative="1" as="geometry">
            <mxPoint x="120" y="335" as="sourcePoint" />
            <mxPoint x="230" y="335" as="targetPoint" />
          </mxGeometry>
        </mxCell>
        <mxCell id="GELHFC_nUUnwsAZdzvut-17" value="Информация о книгах" style="text;strokeColor=none;align=center;fillColor=none;html=1;verticalAlign=middle;whiteSpace=wrap;rounded=0;" parent="1" vertex="1">
          <mxGeometry x="140" y="335" width="80" height="40" as="geometry" />
        </mxCell>
        <mxCell id="GELHFC_nUUnwsAZdzvut-19" value="" style="endArrow=classic;html=1;rounded=0;entryX=0.5;entryY=1;entryDx=0;entryDy=0;" parent="1" edge="1">
          <mxGeometry width="50" height="50" relative="1" as="geometry">
            <mxPoint x="320" y="435" as="sourcePoint" />
            <mxPoint x="320" y="355" as="targetPoint" />
          </mxGeometry>
        </mxCell>
        <mxCell id="GELHFC_nUUnwsAZdzvut-24" value="База данных книг и заказов" style="text;strokeColor=none;align=center;fillColor=none;html=1;verticalAlign=middle;whiteSpace=wrap;rounded=0;" parent="1" vertex="1">
          <mxGeometry x="320" y="365" width="90" height="50" as="geometry" />
        </mxCell>
        <mxCell id="GELHFC_nUUnwsAZdzvut-32" value="Цена&lt;br&gt; книг" style="text;html=1;strokeColor=none;fillColor=none;align=center;verticalAlign=middle;whiteSpace=wrap;rounded=0;" parent="1" vertex="1">
          <mxGeometry x="230" y="245" width="60" height="30" as="geometry" />
        </mxCell>
        <mxCell id="GELHFC_nUUnwsAZdzvut-33" value="" style="endArrow=classic;html=1;rounded=0;entryX=0.25;entryY=0;entryDx=0;entryDy=0;" parent="1" edge="1">
          <mxGeometry width="50" height="50" relative="1" as="geometry">
            <mxPoint x="320" y="235" as="sourcePoint" />
            <mxPoint x="320" y="295" as="targetPoint" />
          </mxGeometry>
        </mxCell>
        <mxCell id="GELHFC_nUUnwsAZdzvut-36" value="Меры безопасности " style="text;html=1;strokeColor=none;fillColor=none;align=center;verticalAlign=middle;whiteSpace=wrap;rounded=0;" parent="1" vertex="1">
          <mxGeometry x="330" y="245" width="60" height="30" as="geometry" />
        </mxCell>
        <mxCell id="GELHFC_nUUnwsAZdzvut-37" value="" style="endArrow=none;html=1;rounded=0;startArrow=classic;startFill=1;endFill=0;" parent="1" edge="1">
          <mxGeometry width="50" height="50" relative="1" as="geometry">
            <mxPoint x="500" y="305" as="sourcePoint" />
            <mxPoint x="360" y="305" as="targetPoint" />
          </mxGeometry>
        </mxCell>
        <mxCell id="GELHFC_nUUnwsAZdzvut-38" value="" style="endArrow=none;html=1;rounded=0;startArrow=classic;startFill=1;endFill=0;" parent="1" edge="1">
          <mxGeometry width="50" height="50" relative="1" as="geometry">
            <mxPoint x="500" y="335" as="sourcePoint" />
            <mxPoint x="360" y="335" as="targetPoint" />
          </mxGeometry>
        </mxCell>
        <mxCell id="GELHFC_nUUnwsAZdzvut-39" value="Информация о заказе пользователя" style="text;html=1;strokeColor=none;fillColor=none;align=center;verticalAlign=middle;whiteSpace=wrap;rounded=0;" parent="1" vertex="1">
          <mxGeometry x="410" y="265" width="60" height="30" as="geometry" />
        </mxCell>
        <mxCell id="GELHFC_nUUnwsAZdzvut-40" value="Прибыль с проданных книг" style="text;html=1;strokeColor=none;fillColor=none;align=center;verticalAlign=middle;whiteSpace=wrap;rounded=0;" parent="1" vertex="1">
          <mxGeometry x="410" y="345" width="60" height="30" as="geometry" />
        </mxCell>
        <mxCell id="GELHFC_nUUnwsAZdzvut-41" value="" style="endArrow=classic;html=1;rounded=0;entryX=0;entryY=0.25;entryDx=0;entryDy=0;" parent="1" edge="1">
          <mxGeometry width="50" height="50" relative="1" as="geometry">
            <mxPoint x="630" y="495" as="sourcePoint" />
            <mxPoint x="750" y="495" as="targetPoint" />
          </mxGeometry>
        </mxCell>
        <mxCell id="GELHFC_nUUnwsAZdzvut-42" value="Запросы пользователя" style="text;strokeColor=none;align=center;fillColor=none;html=1;verticalAlign=middle;whiteSpace=wrap;rounded=0;" parent="1" vertex="1">
          <mxGeometry x="660" y="460" width="60" height="30" as="geometry" />
        </mxCell>
        <mxCell id="GELHFC_nUUnwsAZdzvut-43" value="" style="endArrow=classic;html=1;rounded=0;entryX=0.005;entryY=0.652;entryDx=0;entryDy=0;entryPerimeter=0;" parent="1" edge="1">
          <mxGeometry width="50" height="50" relative="1" as="geometry">
            <mxPoint x="630" y="520" as="sourcePoint" />
            <mxPoint x="751" y="519" as="targetPoint" />
          </mxGeometry>
        </mxCell>
        <mxCell id="GELHFC_nUUnwsAZdzvut-44" value="Информация о книгах" style="text;strokeColor=none;align=center;fillColor=none;html=1;verticalAlign=middle;whiteSpace=wrap;rounded=0;" parent="1" vertex="1">
          <mxGeometry x="650" y="520" width="80" height="40" as="geometry" />
        </mxCell>
        <mxCell id="GELHFC_nUUnwsAZdzvut-45" value="" style="endArrow=classic;html=1;rounded=0;entryX=0.5;entryY=0;entryDx=0;entryDy=0;" parent="1" target="GELHFC_nUUnwsAZdzvut-58" edge="1">
          <mxGeometry width="50" height="50" relative="1" as="geometry">
            <mxPoint x="920" y="290" as="sourcePoint" />
            <mxPoint x="920" y="350" as="targetPoint" />
            <Array as="points">
              <mxPoint x="920" y="440" />
              <mxPoint x="995" y="440" />
            </Array>
          </mxGeometry>
        </mxCell>
        <mxCell id="GELHFC_nUUnwsAZdzvut-46" value="Цена&lt;br&gt; книг" style="text;html=1;strokeColor=none;fillColor=none;align=center;verticalAlign=middle;whiteSpace=wrap;rounded=0;" parent="1" vertex="1">
          <mxGeometry x="870" y="300" width="60" height="30" as="geometry" />
        </mxCell>
        <mxCell id="GELHFC_nUUnwsAZdzvut-47" value="" style="endArrow=classic;html=1;rounded=0;entryX=0.5;entryY=0;entryDx=0;entryDy=0;jumpStyle=arc;" parent="1" target="GELHFC_nUUnwsAZdzvut-55" edge="1">
          <mxGeometry width="50" height="50" relative="1" as="geometry">
            <mxPoint x="960" y="290" as="sourcePoint" />
            <mxPoint x="960" y="350" as="targetPoint" />
            <Array as="points">
              <mxPoint x="960" y="400" />
              <mxPoint x="820" y="400" />
            </Array>
          </mxGeometry>
        </mxCell>
        <mxCell id="GELHFC_nUUnwsAZdzvut-49" value="" style="endArrow=none;html=1;rounded=0;endFill=0;" parent="1" edge="1">
          <mxGeometry width="50" height="50" relative="1" as="geometry">
            <mxPoint x="1120" y="900" as="sourcePoint" />
            <mxPoint x="1000" y="680" as="targetPoint" />
            <Array as="points">
              <mxPoint x="1120" y="830" />
              <mxPoint x="1120" y="760" />
              <mxPoint x="1000" y="760" />
              <mxPoint x="1000" y="680" />
            </Array>
          </mxGeometry>
        </mxCell>
        <mxCell id="GELHFC_nUUnwsAZdzvut-50" value="База данных книг и заказов" style="text;strokeColor=none;align=center;fillColor=none;html=1;verticalAlign=middle;whiteSpace=wrap;rounded=0;" parent="1" vertex="1">
          <mxGeometry x="1120" y="840" width="90" height="50" as="geometry" />
        </mxCell>
        <mxCell id="GELHFC_nUUnwsAZdzvut-51" value="" style="endArrow=none;html=1;rounded=0;startArrow=classic;startFill=1;endFill=0;" parent="1" edge="1">
          <mxGeometry width="50" height="50" relative="1" as="geometry">
            <mxPoint x="1560" y="700" as="sourcePoint" />
            <mxPoint x="1420" y="700" as="targetPoint" />
          </mxGeometry>
        </mxCell>
        <mxCell id="GELHFC_nUUnwsAZdzvut-52" value="" style="endArrow=none;html=1;rounded=0;startArrow=classic;startFill=1;endFill=0;" parent="1" edge="1">
          <mxGeometry width="50" height="50" relative="1" as="geometry">
            <mxPoint x="1560" y="730" as="sourcePoint" />
            <mxPoint x="1420" y="730" as="targetPoint" />
          </mxGeometry>
        </mxCell>
        <mxCell id="GELHFC_nUUnwsAZdzvut-53" value="Информация о заказе пользователя" style="text;html=1;strokeColor=none;fillColor=none;align=center;verticalAlign=middle;whiteSpace=wrap;rounded=0;" parent="1" vertex="1">
          <mxGeometry x="1470" y="660" width="60" height="30" as="geometry" />
        </mxCell>
        <mxCell id="GELHFC_nUUnwsAZdzvut-54" value="Прибыль с проданных книг" style="text;html=1;strokeColor=none;fillColor=none;align=center;verticalAlign=middle;whiteSpace=wrap;rounded=0;" parent="1" vertex="1">
          <mxGeometry x="1470" y="740" width="60" height="30" as="geometry" />
        </mxCell>
        <mxCell id="GELHFC_nUUnwsAZdzvut-75" style="edgeStyle=orthogonalEdgeStyle;rounded=0;orthogonalLoop=1;jettySize=auto;html=1;entryX=0;entryY=0.5;entryDx=0;entryDy=0;" parent="1" source="GELHFC_nUUnwsAZdzvut-55" target="GELHFC_nUUnwsAZdzvut-58" edge="1">
          <mxGeometry relative="1" as="geometry">
            <Array as="points">
              <mxPoint x="910" y="505" />
              <mxPoint x="910" y="575" />
            </Array>
          </mxGeometry>
        </mxCell>
        <mxCell id="GELHFC_nUUnwsAZdzvut-55" value="Регистрация или вход пользователя" style="rounded=0;whiteSpace=wrap;html=1;" parent="1" vertex="1">
          <mxGeometry x="750" y="470" width="140" height="70" as="geometry" />
        </mxCell>
        <mxCell id="GELHFC_nUUnwsAZdzvut-57" value="1" style="text;html=1;strokeColor=none;fillColor=none;align=center;verticalAlign=middle;whiteSpace=wrap;rounded=0;" parent="1" vertex="1">
          <mxGeometry x="840" y="510" width="60" height="30" as="geometry" />
        </mxCell>
        <mxCell id="GELHFC_nUUnwsAZdzvut-79" style="edgeStyle=orthogonalEdgeStyle;rounded=0;orthogonalLoop=1;jettySize=auto;html=1;entryX=0;entryY=0.5;entryDx=0;entryDy=0;" parent="1" source="GELHFC_nUUnwsAZdzvut-58" target="GELHFC_nUUnwsAZdzvut-60" edge="1">
          <mxGeometry relative="1" as="geometry">
            <Array as="points">
              <mxPoint x="1085" y="575" />
              <mxPoint x="1085" y="645" />
            </Array>
          </mxGeometry>
        </mxCell>
        <mxCell id="GELHFC_nUUnwsAZdzvut-58" value="" style="rounded=0;whiteSpace=wrap;html=1;" parent="1" vertex="1">
          <mxGeometry x="925" y="540" width="140" height="70" as="geometry" />
        </mxCell>
        <mxCell id="GELHFC_nUUnwsAZdzvut-59" value="2" style="text;html=1;strokeColor=none;fillColor=none;align=center;verticalAlign=middle;whiteSpace=wrap;rounded=0;" parent="1" vertex="1">
          <mxGeometry x="1015" y="580" width="60" height="30" as="geometry" />
        </mxCell>
        <mxCell id="GELHFC_nUUnwsAZdzvut-80" style="edgeStyle=orthogonalEdgeStyle;rounded=0;orthogonalLoop=1;jettySize=auto;html=1;entryX=0;entryY=0.5;entryDx=0;entryDy=0;" parent="1" source="GELHFC_nUUnwsAZdzvut-60" target="GELHFC_nUUnwsAZdzvut-62" edge="1">
          <mxGeometry relative="1" as="geometry" />
        </mxCell>
        <mxCell id="GELHFC_nUUnwsAZdzvut-60" value="Поиск подходящих изданий и авторов" style="rounded=0;whiteSpace=wrap;html=1;" parent="1" vertex="1">
          <mxGeometry x="1100" y="610" width="140" height="70" as="geometry" />
        </mxCell>
        <mxCell id="GELHFC_nUUnwsAZdzvut-61" value="3" style="text;html=1;strokeColor=none;fillColor=none;align=center;verticalAlign=middle;whiteSpace=wrap;rounded=0;" parent="1" vertex="1">
          <mxGeometry x="1190" y="650" width="60" height="30" as="geometry" />
        </mxCell>
        <mxCell id="GELHFC_nUUnwsAZdzvut-62" value="" style="rounded=0;whiteSpace=wrap;html=1;" parent="1" vertex="1">
          <mxGeometry x="1280" y="680" width="140" height="70" as="geometry" />
        </mxCell>
        <mxCell id="GELHFC_nUUnwsAZdzvut-63" value="4" style="text;html=1;strokeColor=none;fillColor=none;align=center;verticalAlign=middle;whiteSpace=wrap;rounded=0;" parent="1" vertex="1">
          <mxGeometry x="1370" y="720" width="60" height="30" as="geometry" />
        </mxCell>
        <mxCell id="GELHFC_nUUnwsAZdzvut-64" value="" style="endArrow=classic;html=1;rounded=0;entryX=0.571;entryY=1;entryDx=0;entryDy=0;entryPerimeter=0;" parent="1" target="GELHFC_nUUnwsAZdzvut-62" edge="1">
          <mxGeometry width="50" height="50" relative="1" as="geometry">
            <mxPoint x="1120" y="800" as="sourcePoint" />
            <mxPoint x="1360" y="780" as="targetPoint" />
            <Array as="points">
              <mxPoint x="1360" y="800" />
            </Array>
          </mxGeometry>
        </mxCell>
        <mxCell id="GELHFC_nUUnwsAZdzvut-65" value="" style="endArrow=classic;html=1;rounded=0;entryX=0.5;entryY=1;entryDx=0;entryDy=0;" parent="1" target="GELHFC_nUUnwsAZdzvut-60" edge="1">
          <mxGeometry width="50" height="50" relative="1" as="geometry">
            <mxPoint x="1120" y="760" as="sourcePoint" />
            <mxPoint x="1170" y="710" as="targetPoint" />
            <Array as="points">
              <mxPoint x="1170" y="760" />
            </Array>
          </mxGeometry>
        </mxCell>
        <mxCell id="GELHFC_nUUnwsAZdzvut-66" value="" style="endArrow=classic;html=1;rounded=0;entryX=0.531;entryY=1.024;entryDx=0;entryDy=0;entryPerimeter=0;" parent="1" target="GELHFC_nUUnwsAZdzvut-58" edge="1">
          <mxGeometry width="50" height="50" relative="1" as="geometry">
            <mxPoint x="1000" y="680" as="sourcePoint" />
            <mxPoint x="1050" y="630" as="targetPoint" />
          </mxGeometry>
        </mxCell>
        <mxCell id="GELHFC_nUUnwsAZdzvut-67" value="" style="endArrow=classic;html=1;rounded=0;entryX=0.5;entryY=1;entryDx=0;entryDy=0;" parent="1" edge="1">
          <mxGeometry width="50" height="50" relative="1" as="geometry">
            <mxPoint x="280" y="435" as="sourcePoint" />
            <mxPoint x="280" y="355" as="targetPoint" />
          </mxGeometry>
        </mxCell>
        <mxCell id="GELHFC_nUUnwsAZdzvut-68" value="Система аутентификации" style="text;html=1;strokeColor=none;fillColor=none;align=center;verticalAlign=middle;whiteSpace=wrap;rounded=0;" parent="1" vertex="1">
          <mxGeometry x="200" y="375" width="60" height="30" as="geometry" />
        </mxCell>
        <mxCell id="GELHFC_nUUnwsAZdzvut-69" value="" style="endArrow=classic;html=1;rounded=0;entryX=0.5;entryY=1;entryDx=0;entryDy=0;" parent="1" target="GELHFC_nUUnwsAZdzvut-55" edge="1">
          <mxGeometry width="50" height="50" relative="1" as="geometry">
            <mxPoint x="1080" y="900" as="sourcePoint" />
            <mxPoint x="1073.75" y="820" as="targetPoint" />
            <Array as="points">
              <mxPoint x="1080" y="800" />
              <mxPoint x="820" y="800" />
            </Array>
          </mxGeometry>
        </mxCell>
        <mxCell id="GELHFC_nUUnwsAZdzvut-70" value="Система аутентификации" style="text;html=1;strokeColor=none;fillColor=none;align=center;verticalAlign=middle;whiteSpace=wrap;rounded=0;" parent="1" vertex="1">
          <mxGeometry x="993.75" y="840" width="60" height="30" as="geometry" />
        </mxCell>
        <mxCell id="GELHFC_nUUnwsAZdzvut-72" value="Обработка запроса пользователя" style="text;html=1;strokeColor=none;fillColor=none;align=center;verticalAlign=middle;whiteSpace=wrap;rounded=0;" parent="1" vertex="1">
          <mxGeometry x="965" y="560" width="60" height="30" as="geometry" />
        </mxCell>
        <mxCell id="GELHFC_nUUnwsAZdzvut-74" value="Необходимы для защиты личной информации пользователя" style="text;html=1;strokeColor=none;fillColor=none;align=center;verticalAlign=middle;whiteSpace=wrap;rounded=0;" parent="1" vertex="1">
          <mxGeometry x="750" y="415" width="60" height="30" as="geometry" />
        </mxCell>
        <mxCell id="GELHFC_nUUnwsAZdzvut-76" value="Может влиять на расчёт бюджета пользователя" style="text;html=1;strokeColor=none;fillColor=none;align=center;verticalAlign=middle;whiteSpace=wrap;rounded=0;" parent="1" vertex="1">
          <mxGeometry x="1005" y="470" width="60" height="30" as="geometry" />
        </mxCell>
        <mxCell id="GELHFC_nUUnwsAZdzvut-77" value="Заказ электронной или бумажной версии книги" style="text;html=1;strokeColor=none;fillColor=none;align=center;verticalAlign=middle;whiteSpace=wrap;rounded=0;" parent="1" vertex="1">
          <mxGeometry x="1300" y="700" width="100" height="30" as="geometry" />
        </mxCell>
        <mxCell id="GELHFC_nUUnwsAZdzvut-81" value="" style="endArrow=classic;html=1;rounded=0;entryX=0.5;entryY=0;entryDx=0;entryDy=0;" parent="1" target="GELHFC_nUUnwsAZdzvut-62" edge="1">
          <mxGeometry width="50" height="50" relative="1" as="geometry">
            <mxPoint x="990" y="440" as="sourcePoint" />
            <mxPoint x="1350" y="590" as="targetPoint" />
            <Array as="points">
              <mxPoint x="1350" y="440" />
            </Array>
          </mxGeometry>
        </mxCell>
        <mxCell id="GELHFC_nUUnwsAZdzvut-82" value="Основа прибыли сервиса" style="text;html=1;strokeColor=none;fillColor=none;align=center;verticalAlign=middle;whiteSpace=wrap;rounded=0;" parent="1" vertex="1">
          <mxGeometry x="1350" y="620" width="60" height="30" as="geometry" />
        </mxCell>
        <mxCell id="GELHFC_nUUnwsAZdzvut-86" value="" style="endArrow=classic;html=1;rounded=0;entryX=0.25;entryY=0;entryDx=0;entryDy=0;" parent="1" edge="1">
          <mxGeometry width="50" height="50" relative="1" as="geometry">
            <mxPoint x="300" y="222.5" as="sourcePoint" />
            <mxPoint x="299.47" y="297.5" as="targetPoint" />
          </mxGeometry>
        </mxCell>
        <mxCell id="GELHFC_nUUnwsAZdzvut-87" value="Авторы или издательства" style="text;html=1;strokeColor=none;fillColor=none;align=center;verticalAlign=middle;whiteSpace=wrap;rounded=0;" parent="1" vertex="1">
          <mxGeometry x="270" y="195" width="60" height="30" as="geometry" />
        </mxCell>
        <mxCell id="GELHFC_nUUnwsAZdzvut-88" value="" style="endArrow=classic;html=1;rounded=0;entryX=0.5;entryY=0;entryDx=0;entryDy=0;jumpStyle=arc;" parent="1" target="GELHFC_nUUnwsAZdzvut-60" edge="1">
          <mxGeometry width="50" height="50" relative="1" as="geometry">
            <mxPoint x="940" y="285" as="sourcePoint" />
            <mxPoint x="1130" y="540" as="targetPoint" />
            <Array as="points">
              <mxPoint x="940" y="420" />
              <mxPoint x="1170" y="420" />
            </Array>
          </mxGeometry>
        </mxCell>
        <mxCell id="GELHFC_nUUnwsAZdzvut-89" value="Авторы или издательства" style="text;html=1;strokeColor=none;fillColor=none;align=center;verticalAlign=middle;whiteSpace=wrap;rounded=0;" parent="1" vertex="1">
          <mxGeometry x="910" y="257.5" width="60" height="30" as="geometry" />
        </mxCell>
        <mxCell id="GELHFC_nUUnwsAZdzvut-93" value="Влияет на обширность библиотеки сервиса " style="text;html=1;strokeColor=none;fillColor=none;align=center;verticalAlign=middle;whiteSpace=wrap;rounded=0;" parent="1" vertex="1">
          <mxGeometry x="1180" y="560" width="60" height="30" as="geometry" />
        </mxCell>
        <mxCell id="GELHFC_nUUnwsAZdzvut-95" value="Меры безопасности " style="text;html=1;strokeColor=none;fillColor=none;align=center;verticalAlign=middle;whiteSpace=wrap;rounded=0;" parent="1" vertex="1">
          <mxGeometry x="980" y="300" width="60" height="30" as="geometry" />
        </mxCell>
        <mxCell id="M8yO9Rw6OY8tIItclzdc-33" style="edgeStyle=orthogonalEdgeStyle;rounded=0;orthogonalLoop=1;jettySize=auto;html=1;entryX=0;entryY=0.5;entryDx=0;entryDy=0;" parent="1" source="M8yO9Rw6OY8tIItclzdc-1" target="M8yO9Rw6OY8tIItclzdc-29" edge="1">
          <mxGeometry relative="1" as="geometry">
            <mxPoint x="920" y="1165" as="targetPoint" />
            <Array as="points">
              <mxPoint x="840" y="1165" />
            </Array>
          </mxGeometry>
        </mxCell>
        <mxCell id="M8yO9Rw6OY8tIItclzdc-1" value="Регистрация или вход пользователя" style="rounded=0;whiteSpace=wrap;html=1;" parent="1" vertex="1">
          <mxGeometry x="760" y="1010" width="150" height="100" as="geometry" />
        </mxCell>
        <mxCell id="M8yO9Rw6OY8tIItclzdc-11" value="" style="shape=partialRectangle;whiteSpace=wrap;html=1;right=0;top=0;bottom=0;fillColor=none;routingCenterX=-0.5;rotation=-90;" parent="1" vertex="1">
          <mxGeometry x="832.5" y="1002.5" width="5" height="150" as="geometry" />
        </mxCell>
        <mxCell id="M8yO9Rw6OY8tIItclzdc-14" value="" style="shape=partialRectangle;whiteSpace=wrap;html=1;right=0;top=0;bottom=0;fillColor=none;routingCenterX=-0.5;" parent="1" vertex="1">
          <mxGeometry x="840" y="1080" width="120" height="30" as="geometry" />
        </mxCell>
        <mxCell id="M8yO9Rw6OY8tIItclzdc-15" value="А1.1.1" style="text;html=1;strokeColor=none;fillColor=none;align=center;verticalAlign=middle;whiteSpace=wrap;rounded=0;" parent="1" vertex="1">
          <mxGeometry x="767" y="1080" width="60" height="30" as="geometry" />
        </mxCell>
        <mxCell id="M8yO9Rw6OY8tIItclzdc-42" style="edgeStyle=orthogonalEdgeStyle;rounded=0;orthogonalLoop=1;jettySize=auto;html=1;exitX=0;exitY=0.75;exitDx=0;exitDy=0;entryX=1;entryY=0.5;entryDx=0;entryDy=0;dashed=1;" parent="1" source="M8yO9Rw6OY8tIItclzdc-17" target="M8yO9Rw6OY8tIItclzdc-41" edge="1">
          <mxGeometry relative="1" as="geometry">
            <Array as="points">
              <mxPoint x="997" y="1280" />
              <mxPoint x="969" y="1280" />
              <mxPoint x="969" y="1251" />
            </Array>
          </mxGeometry>
        </mxCell>
        <mxCell id="M8yO9Rw6OY8tIItclzdc-17" value="Поиск подходящих изданий и авторов" style="rounded=0;whiteSpace=wrap;html=1;" parent="1" vertex="1">
          <mxGeometry x="997" y="1188.75" width="150" height="100" as="geometry" />
        </mxCell>
        <mxCell id="M8yO9Rw6OY8tIItclzdc-18" value="" style="shape=partialRectangle;whiteSpace=wrap;html=1;right=0;top=0;bottom=0;fillColor=none;routingCenterX=-0.5;rotation=-90;" parent="1" vertex="1">
          <mxGeometry x="1068.25" y="1180" width="7.5" height="150" as="geometry" />
        </mxCell>
        <mxCell id="M8yO9Rw6OY8tIItclzdc-19" value="" style="shape=partialRectangle;whiteSpace=wrap;html=1;right=0;top=0;bottom=0;fillColor=none;routingCenterX=-0.5;" parent="1" vertex="1">
          <mxGeometry x="1077" y="1258.75" width="70" height="30" as="geometry" />
        </mxCell>
        <mxCell id="M8yO9Rw6OY8tIItclzdc-20" value="А1.1.3" style="text;html=1;strokeColor=none;fillColor=none;align=center;verticalAlign=middle;whiteSpace=wrap;rounded=0;" parent="1" vertex="1">
          <mxGeometry x="1004" y="1258.75" width="60" height="30" as="geometry" />
        </mxCell>
        <mxCell id="M8yO9Rw6OY8tIItclzdc-21" value="Заказ электронной или бумажной версии книги" style="rounded=0;whiteSpace=wrap;html=1;" parent="1" vertex="1">
          <mxGeometry x="690" y="1196.25" width="150" height="100" as="geometry" />
        </mxCell>
        <mxCell id="M8yO9Rw6OY8tIItclzdc-22" value="" style="shape=partialRectangle;whiteSpace=wrap;html=1;right=0;top=0;bottom=0;fillColor=none;routingCenterX=-0.5;rotation=-90;" parent="1" vertex="1">
          <mxGeometry x="763.75" y="1190" width="2.5" height="150" as="geometry" />
        </mxCell>
        <mxCell id="M8yO9Rw6OY8tIItclzdc-23" value="" style="shape=partialRectangle;whiteSpace=wrap;html=1;right=0;top=0;bottom=0;fillColor=none;routingCenterX=-0.5;" parent="1" vertex="1">
          <mxGeometry x="770" y="1266.25" width="70" height="30" as="geometry" />
        </mxCell>
        <mxCell id="M8yO9Rw6OY8tIItclzdc-24" value="А1.1.4" style="text;html=1;strokeColor=none;fillColor=none;align=center;verticalAlign=middle;whiteSpace=wrap;rounded=0;" parent="1" vertex="1">
          <mxGeometry x="697" y="1266.25" width="60" height="30" as="geometry" />
        </mxCell>
        <mxCell id="M8yO9Rw6OY8tIItclzdc-32" style="edgeStyle=orthogonalEdgeStyle;rounded=0;orthogonalLoop=1;jettySize=auto;html=1;entryX=0.5;entryY=0;entryDx=0;entryDy=0;" parent="1" source="M8yO9Rw6OY8tIItclzdc-25" target="M8yO9Rw6OY8tIItclzdc-31" edge="1">
          <mxGeometry relative="1" as="geometry" />
        </mxCell>
        <mxCell id="M8yO9Rw6OY8tIItclzdc-25" value="Обработка запроса пользователя" style="rounded=0;whiteSpace=wrap;html=1;" parent="1" vertex="1">
          <mxGeometry x="990" y="1008.75" width="150" height="100" as="geometry" />
        </mxCell>
        <mxCell id="M8yO9Rw6OY8tIItclzdc-26" value="" style="shape=partialRectangle;whiteSpace=wrap;html=1;right=0;top=0;bottom=0;fillColor=none;routingCenterX=-0.5;rotation=-90;" parent="1" vertex="1">
          <mxGeometry x="1061.25" y="1000" width="7.5" height="150" as="geometry" />
        </mxCell>
        <mxCell id="M8yO9Rw6OY8tIItclzdc-27" value="" style="shape=partialRectangle;whiteSpace=wrap;html=1;right=0;top=0;bottom=0;fillColor=none;routingCenterX=-0.5;" parent="1" vertex="1">
          <mxGeometry x="1070" y="1078.75" width="70" height="30" as="geometry" />
        </mxCell>
        <mxCell id="M8yO9Rw6OY8tIItclzdc-28" value="А1.1.2" style="text;html=1;strokeColor=none;fillColor=none;align=center;verticalAlign=middle;whiteSpace=wrap;rounded=0;" parent="1" vertex="1">
          <mxGeometry x="997" y="1078.75" width="60" height="30" as="geometry" />
        </mxCell>
        <mxCell id="M8yO9Rw6OY8tIItclzdc-29" value="" style="rounded=0;whiteSpace=wrap;html=1;" parent="1" vertex="1">
          <mxGeometry x="930" y="1150" width="30" height="30" as="geometry" />
        </mxCell>
        <mxCell id="M8yO9Rw6OY8tIItclzdc-30" value="" style="shape=partialRectangle;whiteSpace=wrap;html=1;right=0;top=0;bottom=0;fillColor=none;routingCenterX=-0.5;" parent="1" vertex="1">
          <mxGeometry x="940" y="1150" width="10" height="30" as="geometry" />
        </mxCell>
        <mxCell id="M8yO9Rw6OY8tIItclzdc-34" style="edgeStyle=orthogonalEdgeStyle;rounded=0;orthogonalLoop=1;jettySize=auto;html=1;entryX=0;entryY=0.5;entryDx=0;entryDy=0;exitX=0.833;exitY=0.5;exitDx=0;exitDy=0;exitPerimeter=0;" parent="1" source="M8yO9Rw6OY8tIItclzdc-31" target="M8yO9Rw6OY8tIItclzdc-17" edge="1">
          <mxGeometry relative="1" as="geometry">
            <Array as="points">
              <mxPoint x="977" y="1165" />
              <mxPoint x="977" y="1239" />
            </Array>
          </mxGeometry>
        </mxCell>
        <mxCell id="M8yO9Rw6OY8tIItclzdc-31" value="&amp;amp;" style="text;html=1;strokeColor=none;fillColor=none;align=center;verticalAlign=middle;whiteSpace=wrap;rounded=0;" parent="1" vertex="1">
          <mxGeometry x="935" y="1150" width="30" height="30" as="geometry" />
        </mxCell>
        <mxCell id="M8yO9Rw6OY8tIItclzdc-39" value="" style="rounded=0;whiteSpace=wrap;html=1;" parent="1" vertex="1">
          <mxGeometry x="905" y="1236.25" width="30" height="30" as="geometry" />
        </mxCell>
        <mxCell id="M8yO9Rw6OY8tIItclzdc-40" value="" style="shape=partialRectangle;whiteSpace=wrap;html=1;right=0;top=0;bottom=0;fillColor=none;routingCenterX=-0.5;" parent="1" vertex="1">
          <mxGeometry x="915" y="1236.25" width="10" height="30" as="geometry" />
        </mxCell>
        <mxCell id="M8yO9Rw6OY8tIItclzdc-43" style="edgeStyle=orthogonalEdgeStyle;rounded=0;orthogonalLoop=1;jettySize=auto;html=1;entryX=1;entryY=0.5;entryDx=0;entryDy=0;exitX=0;exitY=0.5;exitDx=0;exitDy=0;dashed=1;" parent="1" source="M8yO9Rw6OY8tIItclzdc-39" target="M8yO9Rw6OY8tIItclzdc-21" edge="1">
          <mxGeometry relative="1" as="geometry" />
        </mxCell>
        <mxCell id="M8yO9Rw6OY8tIItclzdc-41" value="X" style="text;html=1;strokeColor=none;fillColor=none;align=center;verticalAlign=middle;whiteSpace=wrap;rounded=0;" parent="1" vertex="1">
          <mxGeometry x="905" y="1236.25" width="30" height="30" as="geometry" />
        </mxCell>
        <mxCell id="M8yO9Rw6OY8tIItclzdc-44" style="edgeStyle=orthogonalEdgeStyle;rounded=0;orthogonalLoop=1;jettySize=auto;html=1;entryX=0;entryY=0.5;entryDx=0;entryDy=0;" parent="1" source="M8yO9Rw6OY8tIItclzdc-45" target="M8yO9Rw6OY8tIItclzdc-63" edge="1">
          <mxGeometry relative="1" as="geometry">
            <mxPoint x="1460" y="1165" as="targetPoint" />
            <Array as="points">
              <mxPoint x="1380" y="1165" />
            </Array>
          </mxGeometry>
        </mxCell>
        <mxCell id="M8yO9Rw6OY8tIItclzdc-45" value="Ввод данных о новой книге" style="rounded=0;whiteSpace=wrap;html=1;" parent="1" vertex="1">
          <mxGeometry x="1300" y="1010" width="150" height="100" as="geometry" />
        </mxCell>
        <mxCell id="M8yO9Rw6OY8tIItclzdc-46" value="" style="shape=partialRectangle;whiteSpace=wrap;html=1;right=0;top=0;bottom=0;fillColor=none;routingCenterX=-0.5;rotation=-90;" parent="1" vertex="1">
          <mxGeometry x="1372.5" y="1002.5" width="5" height="150" as="geometry" />
        </mxCell>
        <mxCell id="M8yO9Rw6OY8tIItclzdc-47" value="" style="shape=partialRectangle;whiteSpace=wrap;html=1;right=0;top=0;bottom=0;fillColor=none;routingCenterX=-0.5;" parent="1" vertex="1">
          <mxGeometry x="1380" y="1080" width="120" height="30" as="geometry" />
        </mxCell>
        <mxCell id="M8yO9Rw6OY8tIItclzdc-48" value="А1.1.1" style="text;html=1;strokeColor=none;fillColor=none;align=center;verticalAlign=middle;whiteSpace=wrap;rounded=0;" parent="1" vertex="1">
          <mxGeometry x="1307" y="1080" width="60" height="30" as="geometry" />
        </mxCell>
        <mxCell id="M8yO9Rw6OY8tIItclzdc-49" style="edgeStyle=orthogonalEdgeStyle;rounded=0;orthogonalLoop=1;jettySize=auto;html=1;exitX=0;exitY=0.75;exitDx=0;exitDy=0;entryX=1;entryY=0.5;entryDx=0;entryDy=0;dashed=1;" parent="1" source="M8yO9Rw6OY8tIItclzdc-50" edge="1">
          <mxGeometry relative="1" as="geometry">
            <Array as="points">
              <mxPoint x="1537" y="1280" />
              <mxPoint x="1509" y="1280" />
              <mxPoint x="1509" y="1251" />
            </Array>
            <mxPoint x="1475" y="1251.25" as="targetPoint" />
          </mxGeometry>
        </mxCell>
        <mxCell id="M8yO9Rw6OY8tIItclzdc-50" value="Поиск подходящей книги" style="rounded=0;whiteSpace=wrap;html=1;" parent="1" vertex="1">
          <mxGeometry x="1537" y="1188.75" width="150" height="100" as="geometry" />
        </mxCell>
        <mxCell id="M8yO9Rw6OY8tIItclzdc-51" value="" style="shape=partialRectangle;whiteSpace=wrap;html=1;right=0;top=0;bottom=0;fillColor=none;routingCenterX=-0.5;rotation=-90;" parent="1" vertex="1">
          <mxGeometry x="1608.25" y="1180" width="7.5" height="150" as="geometry" />
        </mxCell>
        <mxCell id="M8yO9Rw6OY8tIItclzdc-52" value="" style="shape=partialRectangle;whiteSpace=wrap;html=1;right=0;top=0;bottom=0;fillColor=none;routingCenterX=-0.5;" parent="1" vertex="1">
          <mxGeometry x="1617" y="1258.75" width="70" height="30" as="geometry" />
        </mxCell>
        <mxCell id="M8yO9Rw6OY8tIItclzdc-53" value="А1.1.3" style="text;html=1;strokeColor=none;fillColor=none;align=center;verticalAlign=middle;whiteSpace=wrap;rounded=0;" parent="1" vertex="1">
          <mxGeometry x="1544" y="1258.75" width="60" height="30" as="geometry" />
        </mxCell>
        <mxCell id="M8yO9Rw6OY8tIItclzdc-58" style="edgeStyle=orthogonalEdgeStyle;rounded=0;orthogonalLoop=1;jettySize=auto;html=1;entryX=0.5;entryY=0;entryDx=0;entryDy=0;" parent="1" source="M8yO9Rw6OY8tIItclzdc-59" target="M8yO9Rw6OY8tIItclzdc-66" edge="1">
          <mxGeometry relative="1" as="geometry" />
        </mxCell>
        <mxCell id="M8yO9Rw6OY8tIItclzdc-59" value="Ввод данных о авторах и издателях" style="rounded=0;whiteSpace=wrap;html=1;" parent="1" vertex="1">
          <mxGeometry x="1530" y="1008.75" width="150" height="100" as="geometry" />
        </mxCell>
        <mxCell id="M8yO9Rw6OY8tIItclzdc-60" value="" style="shape=partialRectangle;whiteSpace=wrap;html=1;right=0;top=0;bottom=0;fillColor=none;routingCenterX=-0.5;rotation=-90;" parent="1" vertex="1">
          <mxGeometry x="1601.25" y="1000" width="7.5" height="150" as="geometry" />
        </mxCell>
        <mxCell id="M8yO9Rw6OY8tIItclzdc-61" value="" style="shape=partialRectangle;whiteSpace=wrap;html=1;right=0;top=0;bottom=0;fillColor=none;routingCenterX=-0.5;" parent="1" vertex="1">
          <mxGeometry x="1610" y="1078.75" width="70" height="30" as="geometry" />
        </mxCell>
        <mxCell id="M8yO9Rw6OY8tIItclzdc-62" value="А1.1.2" style="text;html=1;strokeColor=none;fillColor=none;align=center;verticalAlign=middle;whiteSpace=wrap;rounded=0;" parent="1" vertex="1">
          <mxGeometry x="1537" y="1078.75" width="60" height="30" as="geometry" />
        </mxCell>
        <mxCell id="M8yO9Rw6OY8tIItclzdc-63" value="" style="rounded=0;whiteSpace=wrap;html=1;" parent="1" vertex="1">
          <mxGeometry x="1470" y="1150" width="30" height="30" as="geometry" />
        </mxCell>
        <mxCell id="M8yO9Rw6OY8tIItclzdc-64" value="" style="shape=partialRectangle;whiteSpace=wrap;html=1;right=0;top=0;bottom=0;fillColor=none;routingCenterX=-0.5;" parent="1" vertex="1">
          <mxGeometry x="1480" y="1150" width="10" height="30" as="geometry" />
        </mxCell>
        <mxCell id="M8yO9Rw6OY8tIItclzdc-65" style="edgeStyle=orthogonalEdgeStyle;rounded=0;orthogonalLoop=1;jettySize=auto;html=1;entryX=0;entryY=0.5;entryDx=0;entryDy=0;exitX=0.833;exitY=0.5;exitDx=0;exitDy=0;exitPerimeter=0;" parent="1" source="M8yO9Rw6OY8tIItclzdc-66" target="M8yO9Rw6OY8tIItclzdc-50" edge="1">
          <mxGeometry relative="1" as="geometry">
            <Array as="points">
              <mxPoint x="1517" y="1165" />
              <mxPoint x="1517" y="1239" />
            </Array>
          </mxGeometry>
        </mxCell>
        <mxCell id="M8yO9Rw6OY8tIItclzdc-66" value="&amp;amp;" style="text;html=1;strokeColor=none;fillColor=none;align=center;verticalAlign=middle;whiteSpace=wrap;rounded=0;" parent="1" vertex="1">
          <mxGeometry x="1475" y="1150" width="30" height="30" as="geometry" />
        </mxCell>
      </root>
    </mxGraphModel>
  </diagram>
  <diagram id="2DTrVMcpvmhxf_LnYnkL" name="Страница — 2">
    <mxGraphModel dx="1037" dy="703" grid="1" gridSize="10" guides="1" tooltips="1" connect="1" arrows="1" fold="1" page="1" pageScale="1" pageWidth="827" pageHeight="1169" math="0" shadow="0">
      <root>
        <mxCell id="0" />
        <mxCell id="1" parent="0" />
        <mxCell id="y_6pmZlgnZK6evel3kz7-1" value="Форма регистрации" style="shape=umlLifeline;perimeter=lifelinePerimeter;whiteSpace=wrap;html=1;container=1;collapsible=0;recursiveResize=0;outlineConnect=0;rounded=1;shadow=0;comic=0;labelBackgroundColor=none;strokeWidth=1;fontFamily=Verdana;fontSize=12;align=center;" vertex="1" parent="1">
          <mxGeometry x="470" y="690" width="100" height="580" as="geometry" />
        </mxCell>
        <mxCell id="y_6pmZlgnZK6evel3kz7-2" value="" style="html=1;points=[];perimeter=orthogonalPerimeter;rounded=0;shadow=0;comic=0;labelBackgroundColor=none;strokeWidth=1;fontFamily=Verdana;fontSize=12;align=center;" vertex="1" parent="y_6pmZlgnZK6evel3kz7-1">
          <mxGeometry x="45" y="100" width="10" height="410" as="geometry" />
        </mxCell>
        <mxCell id="y_6pmZlgnZK6evel3kz7-3" value="Обработка сохранений" style="shape=umlLifeline;perimeter=lifelinePerimeter;whiteSpace=wrap;html=1;container=1;collapsible=0;recursiveResize=0;outlineConnect=0;rounded=1;shadow=0;comic=0;labelBackgroundColor=none;strokeWidth=1;fontFamily=Verdana;fontSize=12;align=center;" vertex="1" parent="1">
          <mxGeometry x="640" y="690" width="100" height="580" as="geometry" />
        </mxCell>
        <mxCell id="y_6pmZlgnZK6evel3kz7-4" value="" style="html=1;points=[];perimeter=orthogonalPerimeter;rounded=0;shadow=0;comic=0;labelBackgroundColor=none;strokeWidth=1;fontFamily=Verdana;fontSize=12;align=center;" vertex="1" parent="y_6pmZlgnZK6evel3kz7-3">
          <mxGeometry x="45" y="120" width="10" height="360" as="geometry" />
        </mxCell>
        <mxCell id="y_6pmZlgnZK6evel3kz7-5" value="" style="endArrow=classic;html=1;rounded=0;" edge="1" parent="y_6pmZlgnZK6evel3kz7-3">
          <mxGeometry width="50" height="50" relative="1" as="geometry">
            <mxPoint x="54.99666666666678" y="159" as="sourcePoint" />
            <mxPoint x="54.99666666666678" y="179" as="targetPoint" />
            <Array as="points">
              <mxPoint x="130" y="159" />
              <mxPoint x="130" y="169" />
              <mxPoint x="130" y="179" />
            </Array>
          </mxGeometry>
        </mxCell>
        <mxCell id="y_6pmZlgnZK6evel3kz7-6" value="БД" style="shape=umlLifeline;perimeter=lifelinePerimeter;whiteSpace=wrap;html=1;container=1;collapsible=0;recursiveResize=0;outlineConnect=0;rounded=1;shadow=0;comic=0;labelBackgroundColor=none;strokeWidth=1;fontFamily=Verdana;fontSize=12;align=center;" vertex="1" parent="1">
          <mxGeometry x="845" y="690" width="100" height="580" as="geometry" />
        </mxCell>
        <mxCell id="y_6pmZlgnZK6evel3kz7-7" value="" style="html=1;points=[];perimeter=orthogonalPerimeter;rounded=0;shadow=0;comic=0;labelBackgroundColor=none;strokeWidth=1;fontFamily=Verdana;fontSize=12;align=center;" vertex="1" parent="y_6pmZlgnZK6evel3kz7-6">
          <mxGeometry x="45" y="230" width="10" height="180" as="geometry" />
        </mxCell>
        <mxCell id="y_6pmZlgnZK6evel3kz7-8" value="Активность регистрации" style="shape=umlLifeline;perimeter=lifelinePerimeter;whiteSpace=wrap;html=1;container=1;collapsible=0;recursiveResize=0;outlineConnect=0;rounded=1;shadow=0;comic=0;labelBackgroundColor=none;strokeWidth=1;fontFamily=Verdana;fontSize=12;align=center;" vertex="1" parent="1">
          <mxGeometry x="990" y="690" width="100" height="580" as="geometry" />
        </mxCell>
        <mxCell id="y_6pmZlgnZK6evel3kz7-9" value="" style="html=1;points=[];perimeter=orthogonalPerimeter;rounded=0;shadow=0;comic=0;labelBackgroundColor=none;strokeWidth=1;fontFamily=Verdana;fontSize=12;align=center;" vertex="1" parent="y_6pmZlgnZK6evel3kz7-8">
          <mxGeometry x="45" y="440" width="10" height="40" as="geometry" />
        </mxCell>
        <mxCell id="y_6pmZlgnZK6evel3kz7-10" value="Гость" style="shape=umlLifeline;perimeter=lifelinePerimeter;whiteSpace=wrap;html=1;container=1;collapsible=0;recursiveResize=0;outlineConnect=0;rounded=1;shadow=0;comic=0;labelBackgroundColor=none;strokeWidth=1;fontFamily=Verdana;fontSize=12;align=center;" vertex="1" parent="1">
          <mxGeometry x="220" y="690" width="110" height="580" as="geometry" />
        </mxCell>
        <mxCell id="y_6pmZlgnZK6evel3kz7-11" value="" style="html=1;points=[];perimeter=orthogonalPerimeter;rounded=0;shadow=0;comic=0;labelBackgroundColor=none;strokeWidth=1;fontFamily=Verdana;fontSize=12;align=center;" vertex="1" parent="y_6pmZlgnZK6evel3kz7-10">
          <mxGeometry x="45" y="100" width="10" height="440" as="geometry" />
        </mxCell>
        <mxCell id="y_6pmZlgnZK6evel3kz7-12" value="1: ввод персональных данных" style="html=1;verticalAlign=bottom;endArrow=block;entryX=0;entryY=0;labelBackgroundColor=none;fontFamily=Verdana;fontSize=12;edgeStyle=elbowEdgeStyle;elbow=vertical;" edge="1" parent="1" source="y_6pmZlgnZK6evel3kz7-11" target="y_6pmZlgnZK6evel3kz7-2">
          <mxGeometry relative="1" as="geometry">
            <mxPoint x="340" y="800" as="sourcePoint" />
          </mxGeometry>
        </mxCell>
        <mxCell id="y_6pmZlgnZK6evel3kz7-13" value="1.1: передача данных" style="html=1;verticalAlign=bottom;endArrow=block;entryX=0;entryY=0;labelBackgroundColor=none;fontFamily=Verdana;fontSize=12;edgeStyle=elbowEdgeStyle;elbow=vertical;" edge="1" parent="1" source="y_6pmZlgnZK6evel3kz7-2" target="y_6pmZlgnZK6evel3kz7-4">
          <mxGeometry relative="1" as="geometry">
            <mxPoint x="490" y="810" as="sourcePoint" />
          </mxGeometry>
        </mxCell>
        <mxCell id="y_6pmZlgnZK6evel3kz7-14" value="1.1.1: валидация" style="text;html=1;strokeColor=none;fillColor=none;align=center;verticalAlign=middle;whiteSpace=wrap;rounded=0;" vertex="1" parent="1">
          <mxGeometry x="770" y="845" width="105" height="30" as="geometry" />
        </mxCell>
        <mxCell id="y_6pmZlgnZK6evel3kz7-15" value="" style="endArrow=classic;html=1;rounded=0;" edge="1" parent="1">
          <mxGeometry width="50" height="50" relative="1" as="geometry">
            <mxPoint x="689.6666666666667" y="944" as="sourcePoint" />
            <mxPoint x="890" y="944" as="targetPoint" />
          </mxGeometry>
        </mxCell>
        <mxCell id="y_6pmZlgnZK6evel3kz7-16" value="1.1.2: запрос на добавление" style="edgeLabel;html=1;align=center;verticalAlign=middle;resizable=0;points=[];" vertex="1" connectable="0" parent="y_6pmZlgnZK6evel3kz7-15">
          <mxGeometry x="0.1098" y="-1" relative="1" as="geometry">
            <mxPoint x="-10" y="-15" as="offset" />
          </mxGeometry>
        </mxCell>
        <mxCell id="y_6pmZlgnZK6evel3kz7-17" value="" style="endArrow=classic;html=1;rounded=0;" edge="1" parent="1">
          <mxGeometry width="50" height="50" relative="1" as="geometry">
            <mxPoint x="889.5000000000002" y="1003" as="sourcePoint" />
            <mxPoint x="695" y="1003" as="targetPoint" />
          </mxGeometry>
        </mxCell>
        <mxCell id="y_6pmZlgnZK6evel3kz7-18" value="1.1.2.1: результат" style="edgeLabel;html=1;align=center;verticalAlign=middle;resizable=0;points=[];" vertex="1" connectable="0" parent="y_6pmZlgnZK6evel3kz7-17">
          <mxGeometry x="0.1098" y="-1" relative="1" as="geometry">
            <mxPoint x="19" y="-12" as="offset" />
          </mxGeometry>
        </mxCell>
        <mxCell id="y_6pmZlgnZK6evel3kz7-19" value="" style="endArrow=classic;html=1;rounded=0;exitX=1.029;exitY=0.956;exitDx=0;exitDy=0;exitPerimeter=0;" edge="1" parent="1" source="y_6pmZlgnZK6evel3kz7-4">
          <mxGeometry width="50" height="50" relative="1" as="geometry">
            <mxPoint x="700" y="1154" as="sourcePoint" />
            <mxPoint x="1035.5000000000002" y="1154" as="targetPoint" />
          </mxGeometry>
        </mxCell>
        <mxCell id="y_6pmZlgnZK6evel3kz7-20" value="1.1.2.1.1: сообщение об успешности" style="edgeLabel;html=1;align=center;verticalAlign=middle;resizable=0;points=[];" vertex="1" connectable="0" parent="y_6pmZlgnZK6evel3kz7-19">
          <mxGeometry x="0.103" y="3" relative="1" as="geometry">
            <mxPoint y="-11" as="offset" />
          </mxGeometry>
        </mxCell>
        <mxCell id="y_6pmZlgnZK6evel3kz7-21" value="Форма входа" style="shape=umlLifeline;perimeter=lifelinePerimeter;whiteSpace=wrap;html=1;container=1;collapsible=0;recursiveResize=0;outlineConnect=0;rounded=1;shadow=0;comic=0;labelBackgroundColor=none;strokeWidth=1;fontFamily=Verdana;fontSize=12;align=center;" vertex="1" parent="1">
          <mxGeometry x="502" y="1553" width="100" height="580" as="geometry" />
        </mxCell>
        <mxCell id="y_6pmZlgnZK6evel3kz7-22" value="" style="html=1;points=[];perimeter=orthogonalPerimeter;rounded=0;shadow=0;comic=0;labelBackgroundColor=none;strokeWidth=1;fontFamily=Verdana;fontSize=12;align=center;" vertex="1" parent="y_6pmZlgnZK6evel3kz7-21">
          <mxGeometry x="45" y="100" width="10" height="410" as="geometry" />
        </mxCell>
        <mxCell id="y_6pmZlgnZK6evel3kz7-23" value="Обработка данных" style="shape=umlLifeline;perimeter=lifelinePerimeter;whiteSpace=wrap;html=1;container=1;collapsible=0;recursiveResize=0;outlineConnect=0;rounded=1;shadow=0;comic=0;labelBackgroundColor=none;strokeWidth=1;fontFamily=Verdana;fontSize=12;align=center;" vertex="1" parent="1">
          <mxGeometry x="672" y="1553" width="100" height="580" as="geometry" />
        </mxCell>
        <mxCell id="y_6pmZlgnZK6evel3kz7-24" value="" style="html=1;points=[];perimeter=orthogonalPerimeter;rounded=0;shadow=0;comic=0;labelBackgroundColor=none;strokeWidth=1;fontFamily=Verdana;fontSize=12;align=center;" vertex="1" parent="y_6pmZlgnZK6evel3kz7-23">
          <mxGeometry x="45" y="120" width="10" height="360" as="geometry" />
        </mxCell>
        <mxCell id="y_6pmZlgnZK6evel3kz7-25" value="БД" style="shape=umlLifeline;perimeter=lifelinePerimeter;whiteSpace=wrap;html=1;container=1;collapsible=0;recursiveResize=0;outlineConnect=0;rounded=1;shadow=0;comic=0;labelBackgroundColor=none;strokeWidth=1;fontFamily=Verdana;fontSize=12;align=center;" vertex="1" parent="1">
          <mxGeometry x="877" y="1553" width="100" height="580" as="geometry" />
        </mxCell>
        <mxCell id="y_6pmZlgnZK6evel3kz7-26" value="" style="html=1;points=[];perimeter=orthogonalPerimeter;rounded=0;shadow=0;comic=0;labelBackgroundColor=none;strokeWidth=1;fontFamily=Verdana;fontSize=12;align=center;" vertex="1" parent="y_6pmZlgnZK6evel3kz7-25">
          <mxGeometry x="45" y="230" width="10" height="180" as="geometry" />
        </mxCell>
        <mxCell id="y_6pmZlgnZK6evel3kz7-27" value="Вход" style="shape=umlLifeline;perimeter=lifelinePerimeter;whiteSpace=wrap;html=1;container=1;collapsible=0;recursiveResize=0;outlineConnect=0;rounded=1;shadow=0;comic=0;labelBackgroundColor=none;strokeWidth=1;fontFamily=Verdana;fontSize=12;align=center;" vertex="1" parent="1">
          <mxGeometry x="1022" y="1553" width="100" height="580" as="geometry" />
        </mxCell>
        <mxCell id="y_6pmZlgnZK6evel3kz7-28" value="" style="html=1;points=[];perimeter=orthogonalPerimeter;rounded=0;shadow=0;comic=0;labelBackgroundColor=none;strokeWidth=1;fontFamily=Verdana;fontSize=12;align=center;" vertex="1" parent="y_6pmZlgnZK6evel3kz7-27">
          <mxGeometry x="45" y="440" width="10" height="40" as="geometry" />
        </mxCell>
        <mxCell id="y_6pmZlgnZK6evel3kz7-29" value="Пользователь" style="shape=umlLifeline;perimeter=lifelinePerimeter;whiteSpace=wrap;html=1;container=1;collapsible=0;recursiveResize=0;outlineConnect=0;rounded=1;shadow=0;comic=0;labelBackgroundColor=none;strokeWidth=1;fontFamily=Verdana;fontSize=12;align=center;" vertex="1" parent="1">
          <mxGeometry x="252" y="1553" width="110" height="580" as="geometry" />
        </mxCell>
        <mxCell id="y_6pmZlgnZK6evel3kz7-30" value="" style="html=1;points=[];perimeter=orthogonalPerimeter;rounded=0;shadow=0;comic=0;labelBackgroundColor=none;strokeWidth=1;fontFamily=Verdana;fontSize=12;align=center;" vertex="1" parent="y_6pmZlgnZK6evel3kz7-29">
          <mxGeometry x="45" y="100" width="10" height="440" as="geometry" />
        </mxCell>
        <mxCell id="y_6pmZlgnZK6evel3kz7-31" value="1: ввод персональных данных" style="html=1;verticalAlign=bottom;endArrow=block;entryX=0;entryY=0;labelBackgroundColor=none;fontFamily=Verdana;fontSize=12;edgeStyle=elbowEdgeStyle;elbow=vertical;" edge="1" parent="1" source="y_6pmZlgnZK6evel3kz7-30" target="y_6pmZlgnZK6evel3kz7-22">
          <mxGeometry relative="1" as="geometry">
            <mxPoint x="372" y="1663" as="sourcePoint" />
          </mxGeometry>
        </mxCell>
        <mxCell id="y_6pmZlgnZK6evel3kz7-32" value="1.1: передача данных" style="html=1;verticalAlign=bottom;endArrow=block;entryX=0;entryY=0;labelBackgroundColor=none;fontFamily=Verdana;fontSize=12;edgeStyle=elbowEdgeStyle;elbow=vertical;" edge="1" parent="1" source="y_6pmZlgnZK6evel3kz7-22" target="y_6pmZlgnZK6evel3kz7-24">
          <mxGeometry relative="1" as="geometry">
            <mxPoint x="522" y="1673" as="sourcePoint" />
          </mxGeometry>
        </mxCell>
        <mxCell id="y_6pmZlgnZK6evel3kz7-33" value="" style="endArrow=classic;html=1;rounded=0;" edge="1" parent="1">
          <mxGeometry width="50" height="50" relative="1" as="geometry">
            <mxPoint x="721.6666666666667" y="1807" as="sourcePoint" />
            <mxPoint x="922" y="1807" as="targetPoint" />
          </mxGeometry>
        </mxCell>
        <mxCell id="y_6pmZlgnZK6evel3kz7-34" value="1.1.1: запрос на проверку" style="edgeLabel;html=1;align=center;verticalAlign=middle;resizable=0;points=[];" vertex="1" connectable="0" parent="y_6pmZlgnZK6evel3kz7-33">
          <mxGeometry x="0.1098" y="-1" relative="1" as="geometry">
            <mxPoint x="-10" y="-15" as="offset" />
          </mxGeometry>
        </mxCell>
        <mxCell id="y_6pmZlgnZK6evel3kz7-35" value="" style="endArrow=classic;html=1;rounded=0;" edge="1" parent="1">
          <mxGeometry width="50" height="50" relative="1" as="geometry">
            <mxPoint x="921.5000000000002" y="1866" as="sourcePoint" />
            <mxPoint x="727" y="1866" as="targetPoint" />
          </mxGeometry>
        </mxCell>
        <mxCell id="y_6pmZlgnZK6evel3kz7-36" value="1.1.1.1: результат" style="edgeLabel;html=1;align=center;verticalAlign=middle;resizable=0;points=[];" vertex="1" connectable="0" parent="y_6pmZlgnZK6evel3kz7-35">
          <mxGeometry x="0.1098" y="-1" relative="1" as="geometry">
            <mxPoint x="19" y="-12" as="offset" />
          </mxGeometry>
        </mxCell>
        <mxCell id="y_6pmZlgnZK6evel3kz7-37" value="" style="endArrow=classic;html=1;rounded=0;exitX=1.029;exitY=0.956;exitDx=0;exitDy=0;exitPerimeter=0;" edge="1" parent="1" source="y_6pmZlgnZK6evel3kz7-24">
          <mxGeometry width="50" height="50" relative="1" as="geometry">
            <mxPoint x="732" y="2017" as="sourcePoint" />
            <mxPoint x="1067.5000000000002" y="2017" as="targetPoint" />
          </mxGeometry>
        </mxCell>
        <mxCell id="y_6pmZlgnZK6evel3kz7-38" value="1.1.1.1.1: сообщение об успешности" style="edgeLabel;html=1;align=center;verticalAlign=middle;resizable=0;points=[];" vertex="1" connectable="0" parent="y_6pmZlgnZK6evel3kz7-37">
          <mxGeometry x="0.103" y="3" relative="1" as="geometry">
            <mxPoint y="-11" as="offset" />
          </mxGeometry>
        </mxCell>
        <mxCell id="y_6pmZlgnZK6evel3kz7-39" value="Форма входа" style="shape=umlLifeline;perimeter=lifelinePerimeter;whiteSpace=wrap;html=1;container=1;collapsible=0;recursiveResize=0;outlineConnect=0;rounded=1;shadow=0;comic=0;labelBackgroundColor=none;strokeWidth=1;fontFamily=Verdana;fontSize=12;align=center;" vertex="1" parent="1">
          <mxGeometry x="485" y="2412" width="100" height="580" as="geometry" />
        </mxCell>
        <mxCell id="y_6pmZlgnZK6evel3kz7-40" value="" style="html=1;points=[];perimeter=orthogonalPerimeter;rounded=0;shadow=0;comic=0;labelBackgroundColor=none;strokeWidth=1;fontFamily=Verdana;fontSize=12;align=center;" vertex="1" parent="y_6pmZlgnZK6evel3kz7-39">
          <mxGeometry x="45" y="100" width="10" height="410" as="geometry" />
        </mxCell>
        <mxCell id="y_6pmZlgnZK6evel3kz7-41" value="Обработка данных" style="shape=umlLifeline;perimeter=lifelinePerimeter;whiteSpace=wrap;html=1;container=1;collapsible=0;recursiveResize=0;outlineConnect=0;rounded=1;shadow=0;comic=0;labelBackgroundColor=none;strokeWidth=1;fontFamily=Verdana;fontSize=12;align=center;" vertex="1" parent="1">
          <mxGeometry x="655" y="2412" width="100" height="580" as="geometry" />
        </mxCell>
        <mxCell id="y_6pmZlgnZK6evel3kz7-42" value="" style="html=1;points=[];perimeter=orthogonalPerimeter;rounded=0;shadow=0;comic=0;labelBackgroundColor=none;strokeWidth=1;fontFamily=Verdana;fontSize=12;align=center;" vertex="1" parent="y_6pmZlgnZK6evel3kz7-41">
          <mxGeometry x="45" y="120" width="10" height="360" as="geometry" />
        </mxCell>
        <mxCell id="y_6pmZlgnZK6evel3kz7-43" value="БД" style="shape=umlLifeline;perimeter=lifelinePerimeter;whiteSpace=wrap;html=1;container=1;collapsible=0;recursiveResize=0;outlineConnect=0;rounded=1;shadow=0;comic=0;labelBackgroundColor=none;strokeWidth=1;fontFamily=Verdana;fontSize=12;align=center;" vertex="1" parent="1">
          <mxGeometry x="860" y="2412" width="100" height="580" as="geometry" />
        </mxCell>
        <mxCell id="y_6pmZlgnZK6evel3kz7-44" value="" style="html=1;points=[];perimeter=orthogonalPerimeter;rounded=0;shadow=0;comic=0;labelBackgroundColor=none;strokeWidth=1;fontFamily=Verdana;fontSize=12;align=center;" vertex="1" parent="y_6pmZlgnZK6evel3kz7-43">
          <mxGeometry x="45" y="230" width="10" height="180" as="geometry" />
        </mxCell>
        <mxCell id="y_6pmZlgnZK6evel3kz7-45" value="Вход" style="shape=umlLifeline;perimeter=lifelinePerimeter;whiteSpace=wrap;html=1;container=1;collapsible=0;recursiveResize=0;outlineConnect=0;rounded=1;shadow=0;comic=0;labelBackgroundColor=none;strokeWidth=1;fontFamily=Verdana;fontSize=12;align=center;" vertex="1" parent="1">
          <mxGeometry x="1005" y="2412" width="100" height="580" as="geometry" />
        </mxCell>
        <mxCell id="y_6pmZlgnZK6evel3kz7-46" value="" style="html=1;points=[];perimeter=orthogonalPerimeter;rounded=0;shadow=0;comic=0;labelBackgroundColor=none;strokeWidth=1;fontFamily=Verdana;fontSize=12;align=center;" vertex="1" parent="y_6pmZlgnZK6evel3kz7-45">
          <mxGeometry x="45" y="440" width="10" height="40" as="geometry" />
        </mxCell>
        <mxCell id="y_6pmZlgnZK6evel3kz7-47" value="Администратор" style="shape=umlLifeline;perimeter=lifelinePerimeter;whiteSpace=wrap;html=1;container=1;collapsible=0;recursiveResize=0;outlineConnect=0;rounded=1;shadow=0;comic=0;labelBackgroundColor=none;strokeWidth=1;fontFamily=Verdana;fontSize=12;align=center;" vertex="1" parent="1">
          <mxGeometry x="235" y="2412" width="110" height="580" as="geometry" />
        </mxCell>
        <mxCell id="y_6pmZlgnZK6evel3kz7-48" value="" style="html=1;points=[];perimeter=orthogonalPerimeter;rounded=0;shadow=0;comic=0;labelBackgroundColor=none;strokeWidth=1;fontFamily=Verdana;fontSize=12;align=center;" vertex="1" parent="y_6pmZlgnZK6evel3kz7-47">
          <mxGeometry x="45" y="100" width="10" height="440" as="geometry" />
        </mxCell>
        <mxCell id="y_6pmZlgnZK6evel3kz7-49" value="1: ввод персональных данных" style="html=1;verticalAlign=bottom;endArrow=block;entryX=0;entryY=0;labelBackgroundColor=none;fontFamily=Verdana;fontSize=12;edgeStyle=elbowEdgeStyle;elbow=vertical;" edge="1" parent="1" source="y_6pmZlgnZK6evel3kz7-48" target="y_6pmZlgnZK6evel3kz7-40">
          <mxGeometry relative="1" as="geometry">
            <mxPoint x="355" y="2522" as="sourcePoint" />
          </mxGeometry>
        </mxCell>
        <mxCell id="y_6pmZlgnZK6evel3kz7-50" value="1.1: передача данных" style="html=1;verticalAlign=bottom;endArrow=block;entryX=0;entryY=0;labelBackgroundColor=none;fontFamily=Verdana;fontSize=12;edgeStyle=elbowEdgeStyle;elbow=vertical;" edge="1" parent="1" source="y_6pmZlgnZK6evel3kz7-40" target="y_6pmZlgnZK6evel3kz7-42">
          <mxGeometry relative="1" as="geometry">
            <mxPoint x="505" y="2532" as="sourcePoint" />
          </mxGeometry>
        </mxCell>
        <mxCell id="y_6pmZlgnZK6evel3kz7-51" value="" style="endArrow=classic;html=1;rounded=0;" edge="1" parent="1">
          <mxGeometry width="50" height="50" relative="1" as="geometry">
            <mxPoint x="704.6666666666667" y="2666" as="sourcePoint" />
            <mxPoint x="905" y="2666" as="targetPoint" />
          </mxGeometry>
        </mxCell>
        <mxCell id="y_6pmZlgnZK6evel3kz7-52" value="1.1.1: запрос на проверку" style="edgeLabel;html=1;align=center;verticalAlign=middle;resizable=0;points=[];" vertex="1" connectable="0" parent="y_6pmZlgnZK6evel3kz7-51">
          <mxGeometry x="0.1098" y="-1" relative="1" as="geometry">
            <mxPoint x="-10" y="-15" as="offset" />
          </mxGeometry>
        </mxCell>
        <mxCell id="y_6pmZlgnZK6evel3kz7-53" value="" style="endArrow=classic;html=1;rounded=0;" edge="1" parent="1">
          <mxGeometry width="50" height="50" relative="1" as="geometry">
            <mxPoint x="904.5000000000002" y="2725" as="sourcePoint" />
            <mxPoint x="710" y="2725" as="targetPoint" />
          </mxGeometry>
        </mxCell>
        <mxCell id="y_6pmZlgnZK6evel3kz7-54" value="1.1.1.1: результат" style="edgeLabel;html=1;align=center;verticalAlign=middle;resizable=0;points=[];" vertex="1" connectable="0" parent="y_6pmZlgnZK6evel3kz7-53">
          <mxGeometry x="0.1098" y="-1" relative="1" as="geometry">
            <mxPoint x="19" y="-12" as="offset" />
          </mxGeometry>
        </mxCell>
        <mxCell id="y_6pmZlgnZK6evel3kz7-55" value="" style="endArrow=classic;html=1;rounded=0;exitX=1.029;exitY=0.956;exitDx=0;exitDy=0;exitPerimeter=0;" edge="1" parent="1" source="y_6pmZlgnZK6evel3kz7-42">
          <mxGeometry width="50" height="50" relative="1" as="geometry">
            <mxPoint x="715" y="2876" as="sourcePoint" />
            <mxPoint x="1050.5000000000002" y="2876" as="targetPoint" />
          </mxGeometry>
        </mxCell>
        <mxCell id="y_6pmZlgnZK6evel3kz7-56" value="1.1.1.1.1: сообщение об успешности" style="edgeLabel;html=1;align=center;verticalAlign=middle;resizable=0;points=[];" vertex="1" connectable="0" parent="y_6pmZlgnZK6evel3kz7-55">
          <mxGeometry x="0.103" y="3" relative="1" as="geometry">
            <mxPoint y="-11" as="offset" />
          </mxGeometry>
        </mxCell>
        <mxCell id="y_6pmZlgnZK6evel3kz7-57" value="Форма ввода адресов" style="shape=umlLifeline;perimeter=lifelinePerimeter;whiteSpace=wrap;html=1;container=1;collapsible=0;recursiveResize=0;outlineConnect=0;rounded=1;shadow=0;comic=0;labelBackgroundColor=none;strokeWidth=1;fontFamily=Verdana;fontSize=12;align=center;" vertex="1" parent="1">
          <mxGeometry x="1610" y="1534" width="100" height="580" as="geometry" />
        </mxCell>
        <mxCell id="y_6pmZlgnZK6evel3kz7-58" value="" style="html=1;points=[];perimeter=orthogonalPerimeter;rounded=0;shadow=0;comic=0;labelBackgroundColor=none;strokeWidth=1;fontFamily=Verdana;fontSize=12;align=center;" vertex="1" parent="y_6pmZlgnZK6evel3kz7-57">
          <mxGeometry x="45" y="100" width="10" height="39" as="geometry" />
        </mxCell>
        <mxCell id="y_6pmZlgnZK6evel3kz7-59" value="Обработка данных" style="shape=umlLifeline;perimeter=lifelinePerimeter;whiteSpace=wrap;html=1;container=1;collapsible=0;recursiveResize=0;outlineConnect=0;rounded=1;shadow=0;comic=0;labelBackgroundColor=none;strokeWidth=1;fontFamily=Verdana;fontSize=12;align=center;" vertex="1" parent="1">
          <mxGeometry x="1915" y="1534" width="100" height="580" as="geometry" />
        </mxCell>
        <mxCell id="y_6pmZlgnZK6evel3kz7-60" value="" style="html=1;points=[];perimeter=orthogonalPerimeter;rounded=0;shadow=0;comic=0;labelBackgroundColor=none;strokeWidth=1;fontFamily=Verdana;fontSize=12;align=center;" vertex="1" parent="y_6pmZlgnZK6evel3kz7-59">
          <mxGeometry x="45" y="120" width="10" height="112" as="geometry" />
        </mxCell>
        <mxCell id="y_6pmZlgnZK6evel3kz7-61" value="Microsoft Maps API" style="shape=umlLifeline;perimeter=lifelinePerimeter;whiteSpace=wrap;html=1;container=1;collapsible=0;recursiveResize=0;outlineConnect=0;rounded=1;shadow=0;comic=0;labelBackgroundColor=none;strokeWidth=1;fontFamily=Verdana;fontSize=12;align=center;" vertex="1" parent="1">
          <mxGeometry x="2065" y="1534" width="100" height="580" as="geometry" />
        </mxCell>
        <mxCell id="y_6pmZlgnZK6evel3kz7-62" value="" style="html=1;points=[];perimeter=orthogonalPerimeter;rounded=0;shadow=0;comic=0;labelBackgroundColor=none;strokeWidth=1;fontFamily=Verdana;fontSize=12;align=center;" vertex="1" parent="y_6pmZlgnZK6evel3kz7-61">
          <mxGeometry x="45" y="143" width="10" height="267" as="geometry" />
        </mxCell>
        <mxCell id="y_6pmZlgnZK6evel3kz7-63" value="Пользователь" style="shape=umlLifeline;perimeter=lifelinePerimeter;whiteSpace=wrap;html=1;container=1;collapsible=0;recursiveResize=0;outlineConnect=0;rounded=1;shadow=0;comic=0;labelBackgroundColor=none;strokeWidth=1;fontFamily=Verdana;fontSize=12;align=center;" vertex="1" parent="1">
          <mxGeometry x="1360" y="1534" width="110" height="580" as="geometry" />
        </mxCell>
        <mxCell id="y_6pmZlgnZK6evel3kz7-64" value="" style="html=1;points=[];perimeter=orthogonalPerimeter;rounded=0;shadow=0;comic=0;labelBackgroundColor=none;strokeWidth=1;fontFamily=Verdana;fontSize=12;align=center;" vertex="1" parent="y_6pmZlgnZK6evel3kz7-63">
          <mxGeometry x="50" y="99" width="10" height="462" as="geometry" />
        </mxCell>
        <mxCell id="y_6pmZlgnZK6evel3kz7-65" value="1: ввод персональных данных" style="html=1;verticalAlign=bottom;endArrow=block;entryX=0;entryY=0;labelBackgroundColor=none;fontFamily=Verdana;fontSize=12;edgeStyle=elbowEdgeStyle;elbow=vertical;" edge="1" parent="1" source="y_6pmZlgnZK6evel3kz7-64" target="y_6pmZlgnZK6evel3kz7-58">
          <mxGeometry relative="1" as="geometry">
            <mxPoint x="1480" y="1644" as="sourcePoint" />
          </mxGeometry>
        </mxCell>
        <mxCell id="y_6pmZlgnZK6evel3kz7-66" value="" style="endArrow=block;html=1;rounded=0;exitX=0.952;exitY=0.373;exitDx=0;exitDy=0;exitPerimeter=0;endFill=1;" edge="1" parent="1">
          <mxGeometry width="50" height="50" relative="1" as="geometry">
            <mxPoint x="1969.52" y="1691.2800000000002" as="sourcePoint" />
            <mxPoint x="2109" y="1691" as="targetPoint" />
          </mxGeometry>
        </mxCell>
        <mxCell id="y_6pmZlgnZK6evel3kz7-67" value="1.1.1: запрос на проверку" style="edgeLabel;html=1;align=center;verticalAlign=middle;resizable=0;points=[];" vertex="1" connectable="0" parent="y_6pmZlgnZK6evel3kz7-66">
          <mxGeometry x="0.1098" y="-1" relative="1" as="geometry">
            <mxPoint x="-10" y="-15" as="offset" />
          </mxGeometry>
        </mxCell>
        <mxCell id="y_6pmZlgnZK6evel3kz7-68" value="Функциональная карта" style="shape=umlLifeline;perimeter=lifelinePerimeter;whiteSpace=wrap;html=1;container=1;collapsible=0;recursiveResize=0;outlineConnect=0;rounded=1;shadow=0;comic=0;labelBackgroundColor=none;strokeWidth=1;fontFamily=Verdana;fontSize=12;align=center;" vertex="1" parent="1">
          <mxGeometry x="1770" y="1532" width="107" height="582" as="geometry" />
        </mxCell>
        <mxCell id="y_6pmZlgnZK6evel3kz7-69" value="" style="html=1;points=[];perimeter=orthogonalPerimeter;rounded=0;shadow=0;comic=0;labelBackgroundColor=none;strokeWidth=1;fontFamily=Verdana;fontSize=12;align=center;" vertex="1" parent="y_6pmZlgnZK6evel3kz7-68">
          <mxGeometry x="48.5" y="127" width="10" height="82" as="geometry" />
        </mxCell>
        <mxCell id="y_6pmZlgnZK6evel3kz7-70" value="1.1: передача данных" style="html=1;verticalAlign=bottom;endArrow=block;entryX=0;entryY=0;labelBackgroundColor=none;fontFamily=Verdana;fontSize=12;edgeStyle=elbowEdgeStyle;elbow=vertical;" edge="1" parent="1" source="y_6pmZlgnZK6evel3kz7-58" target="y_6pmZlgnZK6evel3kz7-60">
          <mxGeometry relative="1" as="geometry">
            <mxPoint x="1630" y="1654" as="sourcePoint" />
          </mxGeometry>
        </mxCell>
        <mxCell id="y_6pmZlgnZK6evel3kz7-71" style="edgeStyle=orthogonalEdgeStyle;rounded=0;orthogonalLoop=1;jettySize=auto;html=1;endArrow=block;endFill=1;" edge="1" parent="1">
          <mxGeometry relative="1" as="geometry">
            <mxPoint x="1415" y="1699" as="sourcePoint" />
            <mxPoint x="1818.5" y="1699" as="targetPoint" />
            <Array as="points">
              <mxPoint x="1715" y="1699" />
              <mxPoint x="1715" y="1699" />
            </Array>
          </mxGeometry>
        </mxCell>
        <mxCell id="y_6pmZlgnZK6evel3kz7-72" value="&lt;font style=&quot;font-size: 12px;&quot;&gt;2: указание точек подачи и окончания поездки&lt;/font&gt;" style="edgeLabel;html=1;align=center;verticalAlign=middle;resizable=0;points=[];" vertex="1" connectable="0" parent="y_6pmZlgnZK6evel3kz7-71">
          <mxGeometry x="0.0638" y="2" relative="1" as="geometry">
            <mxPoint y="-9" as="offset" />
          </mxGeometry>
        </mxCell>
        <mxCell id="y_6pmZlgnZK6evel3kz7-73" style="edgeStyle=orthogonalEdgeStyle;rounded=0;orthogonalLoop=1;jettySize=auto;html=1;endArrow=block;endFill=1;" edge="1" parent="1">
          <mxGeometry relative="1" as="geometry">
            <mxPoint x="1828.5" y="1720" as="sourcePoint" />
            <mxPoint x="1960" y="1720" as="targetPoint" />
            <Array as="points">
              <mxPoint x="1927" y="1720" />
              <mxPoint x="1927" y="1720" />
            </Array>
          </mxGeometry>
        </mxCell>
        <mxCell id="y_6pmZlgnZK6evel3kz7-74" value="&lt;font style=&quot;font-size: 12px;&quot;&gt;2.1: передача данных&lt;/font&gt;" style="edgeLabel;html=1;align=center;verticalAlign=middle;resizable=0;points=[];" vertex="1" connectable="0" parent="y_6pmZlgnZK6evel3kz7-73">
          <mxGeometry x="0.222" y="2" relative="1" as="geometry">
            <mxPoint x="-14" y="-10" as="offset" />
          </mxGeometry>
        </mxCell>
        <mxCell id="y_6pmZlgnZK6evel3kz7-75" value="" style="endArrow=block;html=1;rounded=0;exitX=0.952;exitY=0.373;exitDx=0;exitDy=0;exitPerimeter=0;endFill=1;" edge="1" parent="1">
          <mxGeometry width="50" height="50" relative="1" as="geometry">
            <mxPoint x="1970.52" y="1744.2800000000002" as="sourcePoint" />
            <mxPoint x="2110" y="1744" as="targetPoint" />
          </mxGeometry>
        </mxCell>
        <mxCell id="y_6pmZlgnZK6evel3kz7-76" value="2.1.1: запрос на проверку" style="edgeLabel;html=1;align=center;verticalAlign=middle;resizable=0;points=[];" vertex="1" connectable="0" parent="y_6pmZlgnZK6evel3kz7-75">
          <mxGeometry x="0.1098" y="-1" relative="1" as="geometry">
            <mxPoint x="-10" y="-15" as="offset" />
          </mxGeometry>
        </mxCell>
        <mxCell id="y_6pmZlgnZK6evel3kz7-77" style="edgeStyle=orthogonalEdgeStyle;rounded=0;orthogonalLoop=1;jettySize=auto;html=1;endArrow=block;endFill=1;" edge="1" parent="1" source="y_6pmZlgnZK6evel3kz7-62" target="y_6pmZlgnZK6evel3kz7-64">
          <mxGeometry relative="1" as="geometry">
            <Array as="points">
              <mxPoint x="1783" y="1907" />
              <mxPoint x="1783" y="1907" />
            </Array>
          </mxGeometry>
        </mxCell>
        <mxCell id="y_6pmZlgnZK6evel3kz7-78" value="1.1.1.1: данные заказа" style="edgeLabel;html=1;align=center;verticalAlign=middle;resizable=0;points=[];" vertex="1" connectable="0" parent="y_6pmZlgnZK6evel3kz7-77">
          <mxGeometry x="0.0754" y="-2" relative="1" as="geometry">
            <mxPoint y="-9" as="offset" />
          </mxGeometry>
        </mxCell>
        <mxCell id="y_6pmZlgnZK6evel3kz7-79" style="edgeStyle=orthogonalEdgeStyle;rounded=0;orthogonalLoop=1;jettySize=auto;html=1;endArrow=block;endFill=1;" edge="1" parent="1">
          <mxGeometry relative="1" as="geometry">
            <mxPoint x="2109" y="1943" as="sourcePoint" />
            <mxPoint x="1414" y="1943" as="targetPoint" />
            <Array as="points">
              <mxPoint x="1782" y="1943" />
              <mxPoint x="1782" y="1943" />
            </Array>
          </mxGeometry>
        </mxCell>
        <mxCell id="y_6pmZlgnZK6evel3kz7-80" value="2.1.1.1: данные заказа" style="edgeLabel;html=1;align=center;verticalAlign=middle;resizable=0;points=[];" vertex="1" connectable="0" parent="y_6pmZlgnZK6evel3kz7-79">
          <mxGeometry x="0.0754" y="-2" relative="1" as="geometry">
            <mxPoint y="-9" as="offset" />
          </mxGeometry>
        </mxCell>
        <mxCell id="y_6pmZlgnZK6evel3kz7-81" value="Заказ" style="shape=umlLifeline;perimeter=lifelinePerimeter;whiteSpace=wrap;html=1;container=1;collapsible=0;recursiveResize=0;outlineConnect=0;rounded=1;shadow=0;comic=0;labelBackgroundColor=none;strokeWidth=1;fontFamily=Verdana;fontSize=12;align=center;" vertex="1" parent="1">
          <mxGeometry x="2194" y="1534" width="100" height="580" as="geometry" />
        </mxCell>
        <mxCell id="y_6pmZlgnZK6evel3kz7-82" value="" style="html=1;points=[];perimeter=orthogonalPerimeter;rounded=0;shadow=0;comic=0;labelBackgroundColor=none;strokeWidth=1;fontFamily=Verdana;fontSize=12;align=center;" vertex="1" parent="y_6pmZlgnZK6evel3kz7-81">
          <mxGeometry x="45" y="454" width="10" height="75" as="geometry" />
        </mxCell>
        <mxCell id="y_6pmZlgnZK6evel3kz7-83" style="edgeStyle=orthogonalEdgeStyle;rounded=0;orthogonalLoop=1;jettySize=auto;html=1;" edge="1" parent="y_6pmZlgnZK6evel3kz7-81">
          <mxGeometry relative="1" as="geometry">
            <mxPoint x="55" y="478.0000000000002" as="sourcePoint" />
            <mxPoint x="55" y="498.0000000000002" as="targetPoint" />
            <Array as="points">
              <mxPoint x="80" y="485" />
            </Array>
          </mxGeometry>
        </mxCell>
        <mxCell id="y_6pmZlgnZK6evel3kz7-84" value="3.1: завершение заказа" style="edgeLabel;html=1;align=center;verticalAlign=middle;resizable=0;points=[];" vertex="1" connectable="0" parent="y_6pmZlgnZK6evel3kz7-83">
          <mxGeometry x="0.2524" relative="1" as="geometry">
            <mxPoint x="63" y="-6" as="offset" />
          </mxGeometry>
        </mxCell>
        <mxCell id="y_6pmZlgnZK6evel3kz7-85" style="edgeStyle=orthogonalEdgeStyle;rounded=0;orthogonalLoop=1;jettySize=auto;html=1;" edge="1" parent="1" source="y_6pmZlgnZK6evel3kz7-64">
          <mxGeometry relative="1" as="geometry">
            <mxPoint x="2239" y="2008" as="targetPoint" />
            <Array as="points">
              <mxPoint x="2016" y="2008" />
              <mxPoint x="2016" y="2008" />
            </Array>
          </mxGeometry>
        </mxCell>
        <mxCell id="y_6pmZlgnZK6evel3kz7-86" value="3: заказ такси" style="edgeLabel;html=1;align=center;verticalAlign=middle;resizable=0;points=[];" vertex="1" connectable="0" parent="y_6pmZlgnZK6evel3kz7-85">
          <mxGeometry x="0.0474" y="-4" relative="1" as="geometry">
            <mxPoint x="20" y="-15" as="offset" />
          </mxGeometry>
        </mxCell>
        <mxCell id="y_6pmZlgnZK6evel3kz7-87" value="БД" style="shape=umlLifeline;perimeter=lifelinePerimeter;whiteSpace=wrap;html=1;container=1;collapsible=0;recursiveResize=0;outlineConnect=0;rounded=1;shadow=0;comic=0;labelBackgroundColor=none;strokeWidth=1;fontFamily=Verdana;fontSize=12;align=center;" vertex="1" parent="1">
          <mxGeometry x="2387" y="1534" width="100" height="580" as="geometry" />
        </mxCell>
        <mxCell id="y_6pmZlgnZK6evel3kz7-88" value="" style="html=1;points=[];perimeter=orthogonalPerimeter;rounded=0;shadow=0;comic=0;labelBackgroundColor=none;strokeWidth=1;fontFamily=Verdana;fontSize=12;align=center;" vertex="1" parent="y_6pmZlgnZK6evel3kz7-87">
          <mxGeometry x="45" y="482" width="10" height="43" as="geometry" />
        </mxCell>
        <mxCell id="y_6pmZlgnZK6evel3kz7-89" style="edgeStyle=orthogonalEdgeStyle;rounded=0;orthogonalLoop=1;jettySize=auto;html=1;" edge="1" parent="1">
          <mxGeometry relative="1" as="geometry">
            <mxPoint x="2249" y="2058" as="sourcePoint" />
            <mxPoint x="2432" y="2058" as="targetPoint" />
            <Array as="points">
              <mxPoint x="2386" y="2058" />
              <mxPoint x="2386" y="2058" />
            </Array>
          </mxGeometry>
        </mxCell>
        <mxCell id="y_6pmZlgnZK6evel3kz7-90" value="3.1.1: добавление в бд" style="edgeLabel;html=1;align=center;verticalAlign=middle;resizable=0;points=[];" vertex="1" connectable="0" parent="y_6pmZlgnZK6evel3kz7-89">
          <mxGeometry x="0.1929" y="1" relative="1" as="geometry">
            <mxPoint x="-17" y="-7" as="offset" />
          </mxGeometry>
        </mxCell>
        <mxCell id="y_6pmZlgnZK6evel3kz7-91" value="Автомобили" style="shape=umlLifeline;perimeter=lifelinePerimeter;whiteSpace=wrap;html=1;container=1;collapsible=0;recursiveResize=0;outlineConnect=0;rounded=1;shadow=0;comic=0;labelBackgroundColor=none;strokeWidth=1;fontFamily=Verdana;fontSize=12;align=center;" vertex="1" parent="1">
          <mxGeometry x="1610" y="782" width="100" height="580" as="geometry" />
        </mxCell>
        <mxCell id="y_6pmZlgnZK6evel3kz7-92" value="" style="html=1;points=[];perimeter=orthogonalPerimeter;rounded=0;shadow=0;comic=0;labelBackgroundColor=none;strokeWidth=1;fontFamily=Verdana;fontSize=12;align=center;" vertex="1" parent="y_6pmZlgnZK6evel3kz7-91">
          <mxGeometry x="45" y="100" width="10" height="280" as="geometry" />
        </mxCell>
        <mxCell id="y_6pmZlgnZK6evel3kz7-93" value="Обработка данных" style="shape=umlLifeline;perimeter=lifelinePerimeter;whiteSpace=wrap;html=1;container=1;collapsible=0;recursiveResize=0;outlineConnect=0;rounded=1;shadow=0;comic=0;labelBackgroundColor=none;strokeWidth=1;fontFamily=Verdana;fontSize=12;align=center;" vertex="1" parent="1">
          <mxGeometry x="1780" y="782" width="100" height="580" as="geometry" />
        </mxCell>
        <mxCell id="y_6pmZlgnZK6evel3kz7-94" value="" style="html=1;points=[];perimeter=orthogonalPerimeter;rounded=0;shadow=0;comic=0;labelBackgroundColor=none;strokeWidth=1;fontFamily=Verdana;fontSize=12;align=center;" vertex="1" parent="y_6pmZlgnZK6evel3kz7-93">
          <mxGeometry x="45" y="120" width="10" height="249" as="geometry" />
        </mxCell>
        <mxCell id="y_6pmZlgnZK6evel3kz7-95" value="" style="endArrow=classic;html=1;rounded=0;" edge="1" parent="y_6pmZlgnZK6evel3kz7-93">
          <mxGeometry width="50" height="50" relative="1" as="geometry">
            <mxPoint x="54.99666666666678" y="159" as="sourcePoint" />
            <mxPoint x="54.99666666666678" y="179" as="targetPoint" />
            <Array as="points">
              <mxPoint x="130" y="159" />
              <mxPoint x="130" y="169" />
              <mxPoint x="130" y="179" />
            </Array>
          </mxGeometry>
        </mxCell>
        <mxCell id="y_6pmZlgnZK6evel3kz7-96" value="БД" style="shape=umlLifeline;perimeter=lifelinePerimeter;whiteSpace=wrap;html=1;container=1;collapsible=0;recursiveResize=0;outlineConnect=0;rounded=1;shadow=0;comic=0;labelBackgroundColor=none;strokeWidth=1;fontFamily=Verdana;fontSize=12;align=center;" vertex="1" parent="1">
          <mxGeometry x="2010" y="782" width="100" height="580" as="geometry" />
        </mxCell>
        <mxCell id="y_6pmZlgnZK6evel3kz7-97" value="" style="html=1;points=[];perimeter=orthogonalPerimeter;rounded=0;shadow=0;comic=0;labelBackgroundColor=none;strokeWidth=1;fontFamily=Verdana;fontSize=12;align=center;" vertex="1" parent="y_6pmZlgnZK6evel3kz7-96">
          <mxGeometry x="45" y="230" width="10" height="180" as="geometry" />
        </mxCell>
        <mxCell id="y_6pmZlgnZK6evel3kz7-98" value="Администратор" style="shape=umlLifeline;perimeter=lifelinePerimeter;whiteSpace=wrap;html=1;container=1;collapsible=0;recursiveResize=0;outlineConnect=0;rounded=1;shadow=0;comic=0;labelBackgroundColor=none;strokeWidth=1;fontFamily=Verdana;fontSize=12;align=center;" vertex="1" parent="1">
          <mxGeometry x="1360" y="782" width="110" height="580" as="geometry" />
        </mxCell>
        <mxCell id="y_6pmZlgnZK6evel3kz7-99" value="" style="html=1;points=[];perimeter=orthogonalPerimeter;rounded=0;shadow=0;comic=0;labelBackgroundColor=none;strokeWidth=1;fontFamily=Verdana;fontSize=12;align=center;" vertex="1" parent="y_6pmZlgnZK6evel3kz7-98">
          <mxGeometry x="45" y="100" width="10" height="440" as="geometry" />
        </mxCell>
        <mxCell id="y_6pmZlgnZK6evel3kz7-100" value="1: CRUD операции" style="html=1;verticalAlign=bottom;endArrow=block;entryX=0;entryY=0;labelBackgroundColor=none;fontFamily=Verdana;fontSize=12;edgeStyle=elbowEdgeStyle;elbow=vertical;" edge="1" parent="1" source="y_6pmZlgnZK6evel3kz7-99" target="y_6pmZlgnZK6evel3kz7-92">
          <mxGeometry relative="1" as="geometry">
            <mxPoint x="1480" y="892" as="sourcePoint" />
          </mxGeometry>
        </mxCell>
        <mxCell id="y_6pmZlgnZK6evel3kz7-101" value="1.1: передача данных" style="html=1;verticalAlign=bottom;endArrow=block;entryX=0;entryY=0;labelBackgroundColor=none;fontFamily=Verdana;fontSize=12;edgeStyle=elbowEdgeStyle;elbow=vertical;" edge="1" parent="1" source="y_6pmZlgnZK6evel3kz7-92" target="y_6pmZlgnZK6evel3kz7-94">
          <mxGeometry relative="1" as="geometry">
            <mxPoint x="1630" y="902" as="sourcePoint" />
          </mxGeometry>
        </mxCell>
        <mxCell id="y_6pmZlgnZK6evel3kz7-102" value="1.1.1: валидация" style="text;html=1;strokeColor=none;fillColor=none;align=center;verticalAlign=middle;whiteSpace=wrap;rounded=0;" vertex="1" parent="1">
          <mxGeometry x="1910" y="937" width="105" height="30" as="geometry" />
        </mxCell>
        <mxCell id="y_6pmZlgnZK6evel3kz7-103" value="" style="endArrow=classic;html=1;rounded=0;" edge="1" parent="1">
          <mxGeometry width="50" height="50" relative="1" as="geometry">
            <mxPoint x="1836" y="1036" as="sourcePoint" />
            <mxPoint x="2056" y="1035" as="targetPoint" />
          </mxGeometry>
        </mxCell>
        <mxCell id="y_6pmZlgnZK6evel3kz7-104" value="1.1.2: запрос на добавление/изменение" style="edgeLabel;html=1;align=center;verticalAlign=middle;resizable=0;points=[];" vertex="1" connectable="0" parent="y_6pmZlgnZK6evel3kz7-103">
          <mxGeometry x="0.1098" y="-1" relative="1" as="geometry">
            <mxPoint x="-10" y="-15" as="offset" />
          </mxGeometry>
        </mxCell>
        <mxCell id="y_6pmZlgnZK6evel3kz7-105" value="" style="endArrow=classic;html=1;rounded=0;" edge="1" parent="1">
          <mxGeometry width="50" height="50" relative="1" as="geometry">
            <mxPoint x="2055" y="1095" as="sourcePoint" />
            <mxPoint x="1835" y="1095" as="targetPoint" />
          </mxGeometry>
        </mxCell>
        <mxCell id="y_6pmZlgnZK6evel3kz7-106" value="1.1.2.1: результат" style="edgeLabel;html=1;align=center;verticalAlign=middle;resizable=0;points=[];" vertex="1" connectable="0" parent="y_6pmZlgnZK6evel3kz7-105">
          <mxGeometry x="0.1098" y="-1" relative="1" as="geometry">
            <mxPoint x="19" y="-12" as="offset" />
          </mxGeometry>
        </mxCell>
        <mxCell id="y_6pmZlgnZK6evel3kz7-107" style="edgeStyle=orthogonalEdgeStyle;rounded=0;orthogonalLoop=1;jettySize=auto;html=1;" edge="1" parent="1" source="y_6pmZlgnZK6evel3kz7-97" target="y_6pmZlgnZK6evel3kz7-99">
          <mxGeometry relative="1" as="geometry">
            <Array as="points">
              <mxPoint x="1719" y="1190" />
              <mxPoint x="1719" y="1190" />
            </Array>
          </mxGeometry>
        </mxCell>
        <mxCell id="y_6pmZlgnZK6evel3kz7-108" value="1.1.2.1.1: сообщение об изменении данных" style="edgeLabel;html=1;align=center;verticalAlign=middle;resizable=0;points=[];" vertex="1" connectable="0" parent="y_6pmZlgnZK6evel3kz7-107">
          <mxGeometry x="-0.067" y="3" relative="1" as="geometry">
            <mxPoint x="10" y="-14" as="offset" />
          </mxGeometry>
        </mxCell>
        <mxCell id="y_6pmZlgnZK6evel3kz7-109" value="Водители" style="shape=umlLifeline;perimeter=lifelinePerimeter;whiteSpace=wrap;html=1;container=1;collapsible=0;recursiveResize=0;outlineConnect=0;rounded=1;shadow=0;comic=0;labelBackgroundColor=none;strokeWidth=1;fontFamily=Verdana;fontSize=12;align=center;" vertex="1" parent="1">
          <mxGeometry x="2644" y="801" width="100" height="580" as="geometry" />
        </mxCell>
        <mxCell id="y_6pmZlgnZK6evel3kz7-110" value="" style="html=1;points=[];perimeter=orthogonalPerimeter;rounded=0;shadow=0;comic=0;labelBackgroundColor=none;strokeWidth=1;fontFamily=Verdana;fontSize=12;align=center;" vertex="1" parent="y_6pmZlgnZK6evel3kz7-109">
          <mxGeometry x="45" y="100" width="10" height="280" as="geometry" />
        </mxCell>
        <mxCell id="y_6pmZlgnZK6evel3kz7-111" value="Обработка данных" style="shape=umlLifeline;perimeter=lifelinePerimeter;whiteSpace=wrap;html=1;container=1;collapsible=0;recursiveResize=0;outlineConnect=0;rounded=1;shadow=0;comic=0;labelBackgroundColor=none;strokeWidth=1;fontFamily=Verdana;fontSize=12;align=center;" vertex="1" parent="1">
          <mxGeometry x="2814" y="801" width="100" height="580" as="geometry" />
        </mxCell>
        <mxCell id="y_6pmZlgnZK6evel3kz7-112" value="" style="html=1;points=[];perimeter=orthogonalPerimeter;rounded=0;shadow=0;comic=0;labelBackgroundColor=none;strokeWidth=1;fontFamily=Verdana;fontSize=12;align=center;" vertex="1" parent="y_6pmZlgnZK6evel3kz7-111">
          <mxGeometry x="45" y="120" width="10" height="249" as="geometry" />
        </mxCell>
        <mxCell id="y_6pmZlgnZK6evel3kz7-113" value="" style="endArrow=classic;html=1;rounded=0;" edge="1" parent="y_6pmZlgnZK6evel3kz7-111">
          <mxGeometry width="50" height="50" relative="1" as="geometry">
            <mxPoint x="54.99666666666678" y="159" as="sourcePoint" />
            <mxPoint x="54.99666666666678" y="179" as="targetPoint" />
            <Array as="points">
              <mxPoint x="130" y="159" />
              <mxPoint x="130" y="169" />
              <mxPoint x="130" y="179" />
            </Array>
          </mxGeometry>
        </mxCell>
        <mxCell id="y_6pmZlgnZK6evel3kz7-114" value="БД" style="shape=umlLifeline;perimeter=lifelinePerimeter;whiteSpace=wrap;html=1;container=1;collapsible=0;recursiveResize=0;outlineConnect=0;rounded=1;shadow=0;comic=0;labelBackgroundColor=none;strokeWidth=1;fontFamily=Verdana;fontSize=12;align=center;" vertex="1" parent="1">
          <mxGeometry x="3044" y="801" width="100" height="580" as="geometry" />
        </mxCell>
        <mxCell id="y_6pmZlgnZK6evel3kz7-115" value="" style="html=1;points=[];perimeter=orthogonalPerimeter;rounded=0;shadow=0;comic=0;labelBackgroundColor=none;strokeWidth=1;fontFamily=Verdana;fontSize=12;align=center;" vertex="1" parent="y_6pmZlgnZK6evel3kz7-114">
          <mxGeometry x="45" y="230" width="10" height="180" as="geometry" />
        </mxCell>
        <mxCell id="y_6pmZlgnZK6evel3kz7-116" value="Администратор" style="shape=umlLifeline;perimeter=lifelinePerimeter;whiteSpace=wrap;html=1;container=1;collapsible=0;recursiveResize=0;outlineConnect=0;rounded=1;shadow=0;comic=0;labelBackgroundColor=none;strokeWidth=1;fontFamily=Verdana;fontSize=12;align=center;" vertex="1" parent="1">
          <mxGeometry x="2394" y="801" width="110" height="580" as="geometry" />
        </mxCell>
        <mxCell id="y_6pmZlgnZK6evel3kz7-117" value="" style="html=1;points=[];perimeter=orthogonalPerimeter;rounded=0;shadow=0;comic=0;labelBackgroundColor=none;strokeWidth=1;fontFamily=Verdana;fontSize=12;align=center;" vertex="1" parent="y_6pmZlgnZK6evel3kz7-116">
          <mxGeometry x="45" y="100" width="10" height="440" as="geometry" />
        </mxCell>
        <mxCell id="y_6pmZlgnZK6evel3kz7-118" value="1: CRUD операции" style="html=1;verticalAlign=bottom;endArrow=block;entryX=0;entryY=0;labelBackgroundColor=none;fontFamily=Verdana;fontSize=12;edgeStyle=elbowEdgeStyle;elbow=vertical;" edge="1" parent="1" source="y_6pmZlgnZK6evel3kz7-117" target="y_6pmZlgnZK6evel3kz7-110">
          <mxGeometry relative="1" as="geometry">
            <mxPoint x="2514" y="911" as="sourcePoint" />
          </mxGeometry>
        </mxCell>
        <mxCell id="y_6pmZlgnZK6evel3kz7-119" value="1.1: передача данных" style="html=1;verticalAlign=bottom;endArrow=block;entryX=0;entryY=0;labelBackgroundColor=none;fontFamily=Verdana;fontSize=12;edgeStyle=elbowEdgeStyle;elbow=vertical;" edge="1" parent="1" source="y_6pmZlgnZK6evel3kz7-110" target="y_6pmZlgnZK6evel3kz7-112">
          <mxGeometry relative="1" as="geometry">
            <mxPoint x="2664" y="921" as="sourcePoint" />
          </mxGeometry>
        </mxCell>
        <mxCell id="y_6pmZlgnZK6evel3kz7-120" value="1.1.1: валидация" style="text;html=1;strokeColor=none;fillColor=none;align=center;verticalAlign=middle;whiteSpace=wrap;rounded=0;" vertex="1" parent="1">
          <mxGeometry x="2944" y="956" width="105" height="30" as="geometry" />
        </mxCell>
        <mxCell id="y_6pmZlgnZK6evel3kz7-121" value="" style="endArrow=classic;html=1;rounded=0;" edge="1" parent="1">
          <mxGeometry width="50" height="50" relative="1" as="geometry">
            <mxPoint x="2870" y="1055" as="sourcePoint" />
            <mxPoint x="3090" y="1054" as="targetPoint" />
          </mxGeometry>
        </mxCell>
        <mxCell id="y_6pmZlgnZK6evel3kz7-122" value="1.1.2: запрос на добавление/изменение" style="edgeLabel;html=1;align=center;verticalAlign=middle;resizable=0;points=[];" vertex="1" connectable="0" parent="y_6pmZlgnZK6evel3kz7-121">
          <mxGeometry x="0.1098" y="-1" relative="1" as="geometry">
            <mxPoint x="-10" y="-15" as="offset" />
          </mxGeometry>
        </mxCell>
        <mxCell id="y_6pmZlgnZK6evel3kz7-123" value="" style="endArrow=classic;html=1;rounded=0;" edge="1" parent="1">
          <mxGeometry width="50" height="50" relative="1" as="geometry">
            <mxPoint x="3089" y="1114" as="sourcePoint" />
            <mxPoint x="2869" y="1114" as="targetPoint" />
          </mxGeometry>
        </mxCell>
        <mxCell id="y_6pmZlgnZK6evel3kz7-124" value="1.1.2.1: результат" style="edgeLabel;html=1;align=center;verticalAlign=middle;resizable=0;points=[];" vertex="1" connectable="0" parent="y_6pmZlgnZK6evel3kz7-123">
          <mxGeometry x="0.1098" y="-1" relative="1" as="geometry">
            <mxPoint x="19" y="-12" as="offset" />
          </mxGeometry>
        </mxCell>
        <mxCell id="y_6pmZlgnZK6evel3kz7-125" style="edgeStyle=orthogonalEdgeStyle;rounded=0;orthogonalLoop=1;jettySize=auto;html=1;" edge="1" parent="1" source="y_6pmZlgnZK6evel3kz7-115" target="y_6pmZlgnZK6evel3kz7-117">
          <mxGeometry relative="1" as="geometry">
            <Array as="points">
              <mxPoint x="2753" y="1209" />
              <mxPoint x="2753" y="1209" />
            </Array>
          </mxGeometry>
        </mxCell>
        <mxCell id="y_6pmZlgnZK6evel3kz7-126" value="1.1.2.1.1: сообщение об изменении данных" style="edgeLabel;html=1;align=center;verticalAlign=middle;resizable=0;points=[];" vertex="1" connectable="0" parent="y_6pmZlgnZK6evel3kz7-125">
          <mxGeometry x="-0.067" y="3" relative="1" as="geometry">
            <mxPoint x="10" y="-14" as="offset" />
          </mxGeometry>
        </mxCell>
        <mxCell id="y_6pmZlgnZK6evel3kz7-127" value="Форма изменения цены за км" style="shape=umlLifeline;perimeter=lifelinePerimeter;whiteSpace=wrap;html=1;container=1;collapsible=0;recursiveResize=0;outlineConnect=0;rounded=1;shadow=0;comic=0;labelBackgroundColor=none;strokeWidth=1;fontFamily=Verdana;fontSize=12;align=center;" vertex="1" parent="1">
          <mxGeometry x="3776" y="792" width="108" height="581" as="geometry" />
        </mxCell>
        <mxCell id="y_6pmZlgnZK6evel3kz7-128" value="" style="html=1;points=[];perimeter=orthogonalPerimeter;rounded=0;shadow=0;comic=0;labelBackgroundColor=none;strokeWidth=1;fontFamily=Verdana;fontSize=12;align=center;" vertex="1" parent="y_6pmZlgnZK6evel3kz7-127">
          <mxGeometry x="49" y="101" width="10" height="280" as="geometry" />
        </mxCell>
        <mxCell id="y_6pmZlgnZK6evel3kz7-129" value="Обработка данных" style="shape=umlLifeline;perimeter=lifelinePerimeter;whiteSpace=wrap;html=1;container=1;collapsible=0;recursiveResize=0;outlineConnect=0;rounded=1;shadow=0;comic=0;labelBackgroundColor=none;strokeWidth=1;fontFamily=Verdana;fontSize=12;align=center;" vertex="1" parent="1">
          <mxGeometry x="3946" y="793" width="100" height="580" as="geometry" />
        </mxCell>
        <mxCell id="y_6pmZlgnZK6evel3kz7-130" value="" style="html=1;points=[];perimeter=orthogonalPerimeter;rounded=0;shadow=0;comic=0;labelBackgroundColor=none;strokeWidth=1;fontFamily=Verdana;fontSize=12;align=center;" vertex="1" parent="y_6pmZlgnZK6evel3kz7-129">
          <mxGeometry x="45" y="120" width="10" height="249" as="geometry" />
        </mxCell>
        <mxCell id="y_6pmZlgnZK6evel3kz7-131" value="БД" style="shape=umlLifeline;perimeter=lifelinePerimeter;whiteSpace=wrap;html=1;container=1;collapsible=0;recursiveResize=0;outlineConnect=0;rounded=1;shadow=0;comic=0;labelBackgroundColor=none;strokeWidth=1;fontFamily=Verdana;fontSize=12;align=center;" vertex="1" parent="1">
          <mxGeometry x="4176" y="793" width="100" height="580" as="geometry" />
        </mxCell>
        <mxCell id="y_6pmZlgnZK6evel3kz7-132" value="" style="html=1;points=[];perimeter=orthogonalPerimeter;rounded=0;shadow=0;comic=0;labelBackgroundColor=none;strokeWidth=1;fontFamily=Verdana;fontSize=12;align=center;" vertex="1" parent="y_6pmZlgnZK6evel3kz7-131">
          <mxGeometry x="45" y="230" width="10" height="180" as="geometry" />
        </mxCell>
        <mxCell id="y_6pmZlgnZK6evel3kz7-133" value="Администратор" style="shape=umlLifeline;perimeter=lifelinePerimeter;whiteSpace=wrap;html=1;container=1;collapsible=0;recursiveResize=0;outlineConnect=0;rounded=1;shadow=0;comic=0;labelBackgroundColor=none;strokeWidth=1;fontFamily=Verdana;fontSize=12;align=center;" vertex="1" parent="1">
          <mxGeometry x="3526" y="793" width="110" height="580" as="geometry" />
        </mxCell>
        <mxCell id="y_6pmZlgnZK6evel3kz7-134" value="" style="html=1;points=[];perimeter=orthogonalPerimeter;rounded=0;shadow=0;comic=0;labelBackgroundColor=none;strokeWidth=1;fontFamily=Verdana;fontSize=12;align=center;" vertex="1" parent="y_6pmZlgnZK6evel3kz7-133">
          <mxGeometry x="45" y="100" width="10" height="440" as="geometry" />
        </mxCell>
        <mxCell id="y_6pmZlgnZK6evel3kz7-135" value="1: изменение цены за км" style="html=1;verticalAlign=bottom;endArrow=block;entryX=0;entryY=0;labelBackgroundColor=none;fontFamily=Verdana;fontSize=12;edgeStyle=elbowEdgeStyle;elbow=vertical;" edge="1" parent="1" source="y_6pmZlgnZK6evel3kz7-134" target="y_6pmZlgnZK6evel3kz7-128">
          <mxGeometry relative="1" as="geometry">
            <mxPoint x="3646" y="903" as="sourcePoint" />
          </mxGeometry>
        </mxCell>
        <mxCell id="y_6pmZlgnZK6evel3kz7-136" value="1.1: передача данных" style="html=1;verticalAlign=bottom;endArrow=block;entryX=0;entryY=0;labelBackgroundColor=none;fontFamily=Verdana;fontSize=12;edgeStyle=elbowEdgeStyle;elbow=vertical;" edge="1" parent="1" source="y_6pmZlgnZK6evel3kz7-128" target="y_6pmZlgnZK6evel3kz7-130">
          <mxGeometry relative="1" as="geometry">
            <mxPoint x="3796" y="913" as="sourcePoint" />
          </mxGeometry>
        </mxCell>
        <mxCell id="y_6pmZlgnZK6evel3kz7-137" value="" style="endArrow=classic;html=1;rounded=0;" edge="1" parent="1">
          <mxGeometry width="50" height="50" relative="1" as="geometry">
            <mxPoint x="4002" y="1047" as="sourcePoint" />
            <mxPoint x="4222" y="1046" as="targetPoint" />
          </mxGeometry>
        </mxCell>
        <mxCell id="y_6pmZlgnZK6evel3kz7-138" value="1.1.1: запрос на изменение" style="edgeLabel;html=1;align=center;verticalAlign=middle;resizable=0;points=[];" vertex="1" connectable="0" parent="y_6pmZlgnZK6evel3kz7-137">
          <mxGeometry x="0.1098" y="-1" relative="1" as="geometry">
            <mxPoint x="-10" y="-15" as="offset" />
          </mxGeometry>
        </mxCell>
        <mxCell id="y_6pmZlgnZK6evel3kz7-139" value="" style="endArrow=classic;html=1;rounded=0;" edge="1" parent="1">
          <mxGeometry width="50" height="50" relative="1" as="geometry">
            <mxPoint x="4221" y="1106" as="sourcePoint" />
            <mxPoint x="4001" y="1106" as="targetPoint" />
          </mxGeometry>
        </mxCell>
        <mxCell id="y_6pmZlgnZK6evel3kz7-140" value="1.1.1.1: результат" style="edgeLabel;html=1;align=center;verticalAlign=middle;resizable=0;points=[];" vertex="1" connectable="0" parent="y_6pmZlgnZK6evel3kz7-139">
          <mxGeometry x="0.1098" y="-1" relative="1" as="geometry">
            <mxPoint x="19" y="-12" as="offset" />
          </mxGeometry>
        </mxCell>
        <mxCell id="y_6pmZlgnZK6evel3kz7-141" style="edgeStyle=orthogonalEdgeStyle;rounded=0;orthogonalLoop=1;jettySize=auto;html=1;" edge="1" parent="1" source="y_6pmZlgnZK6evel3kz7-132" target="y_6pmZlgnZK6evel3kz7-134">
          <mxGeometry relative="1" as="geometry">
            <Array as="points">
              <mxPoint x="3885" y="1201" />
              <mxPoint x="3885" y="1201" />
            </Array>
          </mxGeometry>
        </mxCell>
        <mxCell id="y_6pmZlgnZK6evel3kz7-142" value="1.1.1.1.1: сообщение об изменении данных" style="edgeLabel;html=1;align=center;verticalAlign=middle;resizable=0;points=[];" vertex="1" connectable="0" parent="y_6pmZlgnZK6evel3kz7-141">
          <mxGeometry x="-0.067" y="3" relative="1" as="geometry">
            <mxPoint x="10" y="-14" as="offset" />
          </mxGeometry>
        </mxCell>
      </root>
    </mxGraphModel>
  </diagram>
</mxfile>
